G04 start of page 2 for group 3 layer_idx 0 *
G04 Title: (unknown), top_copper *
G04 Creator: pcb-rnd 2.2.0 *
G04 CreationDate: 2020-02-24 19:44:40 UTC *
G04 For:  *
G04 Format: Gerber/RS-274X *
G04 PCB-Dimensions: 316500 593500 *
G04 PCB-Coordinate-Origin: lower left *
%MOIN*%
%FSLAX25Y25*%
%LNTOP_COPPER_NONE_3*%
%ADD29C,0.0500*%
%ADD28C,0.0394*%
%ADD27C,0.0380*%
%ADD26C,0.0320*%
%ADD25C,0.0790*%
%ADD24C,0.0420*%
%ADD23C,0.0280*%
%ADD22C,0.0300*%
%ADD21C,0.0710*%
%ADD20C,0.0650*%
%ADD19C,0.0800*%
%ADD18C,0.2000*%
%ADD17C,0.0720*%
%ADD16C,0.0600*%
%ADD15C,0.0550*%
%ADD14C,0.0001*%
%ADD13C,0.1050*%
%ADD12C,0.0400*%
%ADD11C,0.0250*%
G54D11*X22000Y505000D02*Y522500D01*
X30000Y453000D02*Y469500D01*
X40000Y505000D02*Y520500D01*
Y505000D02*Y505500D01*
G54D12*X119500Y424500D02*X96500D01*
X40000Y423000D02*Y414500D01*
X45000Y409500D01*
G54D11*X91500Y487500D02*Y473500D01*
X30000Y469500D02*X48000Y487500D01*
X91500D01*
G54D12*X257500Y489500D02*Y501000D01*
Y489500D02*X231500Y463500D01*
X246000Y544500D02*X234000Y532500D01*
X236500Y409500D02*X256000Y429000D01*
X210500Y436500D02*Y410000D01*
X211500Y454500D02*X240500Y425500D01*
X231500Y434500D02*X240500Y425500D01*
X256000Y429000D02*Y461000D01*
X162500Y541000D02*X193300Y510200D01*
X160000D02*X160800D01*
X193300D02*X200300D01*
X160000D02*X165800D01*
X202500Y541000D02*X213000Y553500D01*
X223000D02*Y541500D01*
X202500Y541000D02*X199500Y524500D01*
X223000Y541500D02*X212000Y530500D01*
X231000Y532500D02*X234000D01*
X231000D02*X233000Y553500D01*
X231500Y463500D02*Y434500D01*
X212000Y530500D02*Y503500D01*
X200300Y510200D02*X207000Y503500D01*
X212000D01*
X200000Y478500D02*X197500D01*
X165800Y510200D02*X197500Y478500D01*
G54D11*X280500Y501000D02*X242000Y462500D01*
Y434500D01*
G54D12*X278500Y483500D02*X256000Y461000D01*
G54D11*X280500Y540500D02*Y501000D01*
G54D12*X263000Y544500D02*X266500Y548000D01*
X288000D01*
X297500Y538500D02*Y483500D01*
X307000Y548500D02*Y453000D01*
X278500Y483500D02*X297500D01*
X288000Y548000D02*X297500Y538500D01*
X263000Y544500D02*X246000D01*
X307000Y453000D02*X297500Y443500D01*
X278500D02*X297500D01*
X135500Y409500D02*X236500D01*
X45000D02*X165500D01*
X247500Y572000D02*X168500D01*
X146500Y551000D02*X167500Y572000D01*
X146500Y551000D02*X75000D01*
X300500Y559500D02*X260000D01*
X247500Y572000D01*
X300500Y559500D02*Y555000D01*
X307000Y548500D01*
X176500Y454500D02*X211500D01*
X202500Y444500D02*X149500D01*
X202500D02*X210500Y436500D01*
G54D11*X202000Y434500D02*X141500D01*
X131500Y444500D01*
X119500D01*
X40000Y520500D02*X50500Y531000D01*
X22000Y522500D02*X13500Y531000D01*
G54D12*X22000Y581000D02*X45000D01*
X75000Y551000D01*
G54D13*X22000Y581000D03*
G54D14*G36*
X26750Y536250D02*X37250D01*
Y525750D01*
X26750D01*
Y536250D01*
G37*
G36*
X37250Y507750D02*X42750D01*
Y502250D01*
X37250D01*
Y507750D01*
G37*
G54D15*X40000Y465000D03*
G54D13*X32000Y516000D03*
G54D14*G36*
X19250Y507750D02*X24750D01*
Y502250D01*
X19250D01*
Y507750D01*
G37*
G54D15*X22000Y465000D03*
G54D16*X40000Y453000D03*
X30000D03*
X20000D03*
Y423000D03*
X30000D03*
X40000D03*
G54D14*G36*
X209400Y557100D02*X216600D01*
Y549900D01*
X209400D01*
Y557100D01*
G37*
G54D17*X223000Y553500D03*
X233000D03*
G54D18*X260500Y560500D03*
X300500D03*
G54D19*X270500Y540500D03*
X280500D03*
G54D15*X202500Y541000D03*
G54D14*G36*
X234000Y529500D02*X228000D01*
Y535500D01*
X234000D01*
Y529500D01*
G37*
G36*
X275500Y486500D02*X281500D01*
Y480500D01*
X275500D01*
Y486500D01*
G37*
G54D16*X278500Y473500D03*
Y463500D03*
G54D14*G36*
X254750Y503750D02*X260250D01*
Y498250D01*
X254750D01*
Y503750D01*
G37*
G36*
X294500Y486500D02*X300500D01*
Y480500D01*
X294500D01*
Y486500D01*
G37*
G54D16*X297500Y473500D03*
Y463500D03*
G54D15*Y501000D03*
G54D16*Y453500D03*
X278500D03*
X297500Y443500D03*
X278500D03*
G54D15*X280500Y425500D03*
X199500Y524500D03*
G54D14*G36*
X203000Y481500D02*Y475500D01*
X197000D01*
Y481500D01*
X203000D01*
G37*
G54D16*X210000Y478500D03*
G54D14*G36*
X215000Y506500D02*Y500500D01*
X209000D01*
Y506500D01*
X215000D01*
G37*
G54D16*X222000Y503500D03*
G54D15*X200000Y510200D03*
G54D14*G36*
X199250Y437250D02*X204750D01*
Y431750D01*
X199250D01*
Y437250D01*
G37*
G54D16*X231000Y522500D03*
G54D15*X242000Y434500D03*
G54D14*G36*
X237750Y428250D02*X243250D01*
Y422750D01*
X237750D01*
Y428250D01*
G37*
G54D13*X42000Y581000D03*
X13500Y531000D03*
X50500D03*
Y516000D03*
G54D14*G36*
X47000Y456000D02*X53000D01*
Y450000D01*
X47000D01*
Y456000D01*
G37*
G54D16*X50000Y423000D03*
G54D14*G36*
X116500Y457500D02*X122500D01*
Y451500D01*
X116500D01*
Y457500D01*
G37*
G54D16*X119500Y444500D03*
Y434500D03*
Y424500D03*
X149500D03*
Y434500D03*
Y444500D03*
Y454500D03*
G54D15*X131500Y487500D03*
Y473500D03*
G54D14*G36*
X148000Y487500D02*Y479500D01*
X140000D01*
Y487500D01*
X148000D01*
G37*
G54D19*X144000Y473500D03*
G54D14*G36*
X99500Y431500D02*X93500D01*
Y437500D01*
X99500D01*
Y431500D01*
G37*
G54D15*X73000Y434000D03*
X66000Y429000D03*
G54D16*X96500Y424500D03*
G54D14*G36*
X75750Y466750D02*Y461250D01*
X70250D01*
Y466750D01*
X75750D01*
G37*
G36*
X68750Y471750D02*Y466250D01*
X63250D01*
Y471750D01*
X68750D01*
G37*
G36*
X94250Y484750D02*X88750D01*
Y490250D01*
X94250D01*
Y484750D01*
G37*
G36*
Y470750D02*X88750D01*
Y476250D01*
X94250D01*
Y470750D01*
G37*
G36*
X159750Y543750D02*X165250D01*
Y538250D01*
X159750D01*
Y543750D01*
G37*
G36*
X112000Y555000D02*X120000D01*
Y547000D01*
X112000D01*
Y555000D01*
G37*
G36*
X162250Y527250D02*Y521750D01*
X156750D01*
Y527250D01*
X162250D01*
G37*
G36*
X162750Y512950D02*Y507450D01*
X157250D01*
Y512950D01*
X162750D01*
G37*
G36*
X178500Y497500D02*X186500D01*
Y489500D01*
X178500D01*
Y497500D01*
G37*
G36*
X179500Y451500D02*X173500D01*
Y457500D01*
X179500D01*
Y451500D01*
G37*
G54D16*X176500Y444500D03*
G54D13*X13500Y516000D03*
G54D20*G54D21*G54D22*G54D21*G54D22*G54D23*G54D24*G54D25*G54D26*G54D22*G54D27*G54D22*G54D27*G54D22*G54D27*G54D22*G54D20*G54D21*G54D23*G54D22*G54D28*G54D22*G54D29*G54D22*G54D28*G54D22*G54D21*M02*
