M48
INCH
T20C0.050
T19C0.039
T18C0.038
T17C0.032
T16C0.079
T15C0.042
T14C0.028
T13C0.030
T12C0.071
T11C0.065
%
T14
G05
X004000Y045300
X003000Y045300
X002000Y045300
X002000Y042300
X003000Y042300
X004000Y042300
X005000Y045300
X005000Y042300
X011950Y045450
X011950Y044450
X011950Y043450
X011950Y042450
X014950Y042450
X014950Y043450
X014950Y044450
X014950Y045450
T13
X004000Y050500
X004000Y046500
X002200Y050500
X002200Y046500
X020250Y054100
X023100Y053250
X025750Y050100
X029750Y050100
X028050Y042550
X019950Y052450
X020000Y047850
X021000Y047850
X021200Y050350
X022200Y050350
X020000Y051020
X020200Y043450
X023100Y052250
X024200Y043450
X024050Y042550
X013150Y048750
X013150Y047350
X009650Y043450
X007300Y043400
X006600Y042900
X009650Y042450
X007300Y046400
X006600Y046900
X009150Y048750
X009150Y047350
X016250Y054100
X015950Y052450
X016000Y051020
X017650Y045450
X017650Y044450
T17
X027050Y054050
X028050Y054050
T18
X027850Y048350
X027850Y047350
X027850Y046350
X029750Y048350
X029750Y047350
X029750Y046350
X029750Y045350
X027850Y045350
X029750Y044350
X027850Y044350
T19
X014400Y048350
X014400Y047350
X018250Y049350
T15
X021300Y055350
X022300Y055350
X023300Y055350
T20
X011600Y055100
T11
X002200Y058100
X004200Y058100
T12
X003200Y053100
X003200Y051600
X001350Y053100
X005050Y053100
X005050Y051600
X001350Y051600
T16
X026050Y056050
X030050Y056050
M30
