G04 start of page 2 for group -1 layer_idx 268435460 *
G04 Title: (unknown), <virtual group> *
G04 Creator: pcb-rnd 2.2.0 *
G04 CreationDate: 2020-02-24 19:44:40 UTC *
G04 For:  *
G04 Format: Gerber/RS-274X *
G04 PCB-Dimensions: 316500 593500 *
G04 PCB-Coordinate-Origin: lower left *
%MOIN*%
%FSLAX25Y25*%
%LNBOTTOM_VIRTUAL_ASSY_NONE*%
%ADD110C,0.0500*%
%ADD109C,0.0394*%
%ADD108C,0.0380*%
%ADD107C,0.0320*%
%ADD106C,0.0790*%
%ADD105C,0.0420*%
%ADD104C,0.0280*%
%ADD103C,0.0300*%
%ADD102C,0.0710*%
%ADD101C,0.0650*%
%ADD100C,0.0800*%
%ADD99C,0.2000*%
%ADD98C,0.0720*%
%ADD97C,0.0600*%
%ADD96C,0.0550*%
%ADD95C,0.0001*%
%ADD94C,0.1050*%
G54D94*X22000Y581000D03*
G54D95*G36*
X26750Y536250D02*X37250D01*
Y525750D01*
X26750D01*
Y536250D01*
G37*
G36*
X37250Y507750D02*X42750D01*
Y502250D01*
X37250D01*
Y507750D01*
G37*
G54D96*X40000Y465000D03*
G54D94*X32000Y516000D03*
G54D95*G36*
X19250Y507750D02*X24750D01*
Y502250D01*
X19250D01*
Y507750D01*
G37*
G54D96*X22000Y465000D03*
G54D97*X40000Y453000D03*
X30000D03*
X20000D03*
Y423000D03*
X30000D03*
X40000D03*
G54D95*G36*
X209400Y557100D02*X216600D01*
Y549900D01*
X209400D01*
Y557100D01*
G37*
G54D98*X223000Y553500D03*
X233000D03*
G54D99*X260500Y560500D03*
X300500D03*
G54D100*X270500Y540500D03*
X280500D03*
G54D96*X202500Y541000D03*
G54D95*G36*
X234000Y529500D02*X228000D01*
Y535500D01*
X234000D01*
Y529500D01*
G37*
G36*
X275500Y486500D02*X281500D01*
Y480500D01*
X275500D01*
Y486500D01*
G37*
G54D97*X278500Y473500D03*
Y463500D03*
G54D95*G36*
X254750Y503750D02*X260250D01*
Y498250D01*
X254750D01*
Y503750D01*
G37*
G36*
X294500Y486500D02*X300500D01*
Y480500D01*
X294500D01*
Y486500D01*
G37*
G54D97*X297500Y473500D03*
Y463500D03*
G54D96*Y501000D03*
G54D97*Y453500D03*
X278500D03*
X297500Y443500D03*
X278500D03*
G54D96*X280500Y425500D03*
X199500Y524500D03*
G54D95*G36*
X203000Y481500D02*Y475500D01*
X197000D01*
Y481500D01*
X203000D01*
G37*
G54D97*X210000Y478500D03*
G54D95*G36*
X215000Y506500D02*Y500500D01*
X209000D01*
Y506500D01*
X215000D01*
G37*
G54D97*X222000Y503500D03*
G54D96*X200000Y510200D03*
G54D95*G36*
X199250Y437250D02*X204750D01*
Y431750D01*
X199250D01*
Y437250D01*
G37*
G54D97*X231000Y522500D03*
G54D96*X242000Y434500D03*
G54D95*G36*
X237750Y428250D02*X243250D01*
Y422750D01*
X237750D01*
Y428250D01*
G37*
G54D94*X42000Y581000D03*
X13500Y531000D03*
X50500D03*
Y516000D03*
G54D95*G36*
X47000Y456000D02*X53000D01*
Y450000D01*
X47000D01*
Y456000D01*
G37*
G54D97*X50000Y423000D03*
G54D95*G36*
X116500Y457500D02*X122500D01*
Y451500D01*
X116500D01*
Y457500D01*
G37*
G54D97*X119500Y444500D03*
Y434500D03*
Y424500D03*
X149500D03*
Y434500D03*
Y444500D03*
Y454500D03*
G54D96*X131500Y487500D03*
Y473500D03*
G54D95*G36*
X148000Y487500D02*Y479500D01*
X140000D01*
Y487500D01*
X148000D01*
G37*
G54D100*X144000Y473500D03*
G54D95*G36*
X99500Y431500D02*X93500D01*
Y437500D01*
X99500D01*
Y431500D01*
G37*
G54D96*X73000Y434000D03*
X66000Y429000D03*
G54D97*X96500Y424500D03*
G54D95*G36*
X75750Y466750D02*Y461250D01*
X70250D01*
Y466750D01*
X75750D01*
G37*
G36*
X68750Y471750D02*Y466250D01*
X63250D01*
Y471750D01*
X68750D01*
G37*
G36*
X94250Y484750D02*X88750D01*
Y490250D01*
X94250D01*
Y484750D01*
G37*
G36*
Y470750D02*X88750D01*
Y476250D01*
X94250D01*
Y470750D01*
G37*
G36*
X159750Y543750D02*X165250D01*
Y538250D01*
X159750D01*
Y543750D01*
G37*
G36*
X112000Y555000D02*X120000D01*
Y547000D01*
X112000D01*
Y555000D01*
G37*
G36*
X162250Y527250D02*Y521750D01*
X156750D01*
Y527250D01*
X162250D01*
G37*
G36*
X162750Y512950D02*Y507450D01*
X157250D01*
Y512950D01*
X162750D01*
G37*
G36*
X178500Y497500D02*X186500D01*
Y489500D01*
X178500D01*
Y497500D01*
G37*
G36*
X179500Y451500D02*X173500D01*
Y457500D01*
X179500D01*
Y451500D01*
G37*
G54D97*X176500Y444500D03*
G54D94*X13500Y516000D03*
G54D101*G54D102*G54D103*G54D102*G54D103*G54D104*G54D105*G54D106*G54D107*G54D103*G54D108*G54D103*G54D108*G54D103*G54D108*G54D103*G54D101*G54D102*G54D104*G54D103*G54D109*G54D103*G54D110*G54D103*G54D109*G54D103*G54D102*M02*
