G04 start of page 2 for group 11 layer_idx 1 *
G04 Title: (unknown), bottom_copper *
G04 Creator: pcb-rnd 2.2.0 *
G04 CreationDate: 2020-02-24 19:44:40 UTC *
G04 For:  *
G04 Format: Gerber/RS-274X *
G04 PCB-Dimensions: 316500 593500 *
G04 PCB-Coordinate-Origin: lower left *
%MOIN*%
%FSLAX25Y25*%
%LNBOTTOM_COPPER_NONE_11*%
%ADD51C,0.0500*%
%ADD50C,0.0394*%
%ADD49C,0.0380*%
%ADD48C,0.0320*%
%ADD47C,0.0790*%
%ADD46C,0.0420*%
%ADD45C,0.0280*%
%ADD44C,0.0710*%
%ADD43C,0.0650*%
%ADD42C,0.0800*%
%ADD41C,0.2000*%
%ADD40C,0.0720*%
%ADD39C,0.0600*%
%ADD38C,0.0550*%
%ADD37C,0.1050*%
%ADD36C,0.0300*%
%ADD35C,0.0400*%
%ADD34C,0.0200*%
%ADD33C,0.0250*%
%ADD32C,0.0090*%
%ADD31C,0.0100*%
%ADD30C,0.0001*%
G54D30*G36*
X245000Y561000D02*Y547333D01*
X244634Y547181D01*
X244231Y546935D01*
X244231Y546934D01*
X243872Y546628D01*
X243796Y546538D01*
X242879Y545621D01*
X242565Y545269D01*
X242319Y544866D01*
X242138Y544430D01*
X242028Y543971D01*
X241991Y543500D01*
X242028Y543029D01*
X242138Y542570D01*
X242319Y542134D01*
X242565Y541731D01*
X242872Y541372D01*
X243231Y541065D01*
X243634Y540819D01*
X244070Y540638D01*
X244529Y540528D01*
X245000Y540491D01*
Y486000D01*
X234613Y475613D01*
Y520353D01*
X234656Y520360D01*
X234768Y520397D01*
X234873Y520452D01*
X234968Y520522D01*
X235051Y520606D01*
X235119Y520702D01*
X235170Y520808D01*
X235318Y521216D01*
X235422Y521637D01*
X235484Y522067D01*
X235505Y522500D01*
X235484Y522933D01*
X235422Y523363D01*
X235318Y523784D01*
X235175Y524194D01*
X235122Y524300D01*
X235053Y524396D01*
X234970Y524481D01*
X234875Y524551D01*
X234769Y524606D01*
X234657Y524643D01*
X234613Y524651D01*
Y528130D01*
X234683Y528159D01*
X234884Y528283D01*
X235064Y528436D01*
X235217Y528616D01*
X235341Y528817D01*
X235431Y529035D01*
X235486Y529265D01*
X235505Y529500D01*
X235500Y529559D01*
Y535441D01*
X235505Y535500D01*
X235486Y535735D01*
X235486Y535735D01*
X235431Y535965D01*
X235341Y536183D01*
X235217Y536384D01*
X235064Y536564D01*
X234884Y536717D01*
X234683Y536841D01*
X234613Y536870D01*
Y548648D01*
X235322Y548942D01*
X236007Y549361D01*
X236617Y549883D01*
X237139Y550493D01*
X237558Y551178D01*
X237865Y551919D01*
X238053Y552700D01*
X238100Y553500D01*
X238053Y554300D01*
X237865Y555081D01*
X237558Y555822D01*
X237139Y556507D01*
X236617Y557117D01*
X236007Y557639D01*
X235322Y558058D01*
X234613Y558352D01*
Y561000D01*
X245000D01*
G37*
G36*
X234465Y536931D02*X234235Y536986D01*
X234000Y537005D01*
X233941Y537000D01*
X231000D01*
Y548808D01*
X231419Y548635D01*
X232200Y548447D01*
X233000Y548384D01*
X233800Y548447D01*
X234581Y548635D01*
X234613Y548648D01*
Y536870D01*
X234465Y536931D01*
G37*
G36*
X231000Y472000D02*Y517995D01*
X231433Y518016D01*
X231863Y518078D01*
X232284Y518182D01*
X232694Y518325D01*
X232800Y518378D01*
X232896Y518447D01*
X232981Y518530D01*
X233051Y518625D01*
X233106Y518731D01*
X233143Y518843D01*
X233163Y518960D01*
X233164Y519079D01*
X233146Y519196D01*
X233110Y519309D01*
X233057Y519415D01*
X232988Y519512D01*
X232905Y519596D01*
X232809Y519667D01*
X232704Y519721D01*
X232592Y519759D01*
X232475Y519778D01*
X232356Y519779D01*
X232239Y519761D01*
X232126Y519723D01*
X231855Y519624D01*
X231575Y519556D01*
X231289Y519514D01*
X231000Y519500D01*
Y525500D01*
X231289Y525486D01*
X231575Y525444D01*
X231855Y525376D01*
X232128Y525280D01*
X232239Y525242D01*
X232356Y525225D01*
X232474Y525225D01*
X232591Y525245D01*
X232703Y525282D01*
X232807Y525336D01*
X232902Y525406D01*
X232985Y525491D01*
X233054Y525587D01*
X233107Y525692D01*
X233143Y525805D01*
X233160Y525921D01*
X233159Y526039D01*
X233140Y526156D01*
X233103Y526268D01*
X233048Y526373D01*
X232978Y526468D01*
X232894Y526551D01*
X232798Y526619D01*
X232692Y526670D01*
X232284Y526818D01*
X231863Y526922D01*
X231433Y526984D01*
X231000Y527005D01*
Y528000D01*
X233941D01*
X234000Y527995D01*
X234235Y528014D01*
X234235Y528014D01*
X234465Y528069D01*
X234613Y528130D01*
Y524651D01*
X234540Y524663D01*
X234421Y524664D01*
X234304Y524646D01*
X234191Y524610D01*
X234085Y524557D01*
X233988Y524488D01*
X233904Y524405D01*
X233833Y524309D01*
X233779Y524204D01*
X233741Y524092D01*
X233722Y523975D01*
X233721Y523856D01*
X233739Y523739D01*
X233777Y523626D01*
X233876Y523355D01*
X233944Y523075D01*
X233986Y522789D01*
X234000Y522500D01*
X233986Y522211D01*
X233944Y521925D01*
X233876Y521645D01*
X233780Y521372D01*
X233742Y521261D01*
X233725Y521144D01*
X233725Y521026D01*
X233745Y520909D01*
X233782Y520797D01*
X233836Y520693D01*
X233906Y520598D01*
X233991Y520515D01*
X234087Y520446D01*
X234192Y520393D01*
X234305Y520357D01*
X234421Y520340D01*
X234539Y520341D01*
X234613Y520353D01*
Y475613D01*
X231000Y472000D01*
G37*
G36*
X234613Y561000D02*Y558352D01*
X234581Y558365D01*
X233800Y558553D01*
X233000Y558616D01*
X232200Y558553D01*
X231419Y558365D01*
X231000Y558192D01*
Y561000D01*
X234613D01*
G37*
G36*
X227558Y551178D02*X227865Y551919D01*
X228000Y552480D01*
X228135Y551919D01*
X228442Y551178D01*
X228861Y550493D01*
X229383Y549883D01*
X229993Y549361D01*
X230678Y548942D01*
X231000Y548808D01*
Y537000D01*
X228059D01*
X228000Y537005D01*
X227765Y536986D01*
X227765Y536986D01*
X227535Y536931D01*
X227387Y536870D01*
Y550898D01*
X227558Y551178D01*
G37*
G36*
X227387Y468387D02*Y520349D01*
X227460Y520337D01*
X227579Y520336D01*
X227696Y520354D01*
X227809Y520390D01*
X227915Y520443D01*
X228012Y520512D01*
X228096Y520595D01*
X228167Y520691D01*
X228221Y520796D01*
X228259Y520908D01*
X228278Y521025D01*
X228279Y521144D01*
X228261Y521261D01*
X228223Y521374D01*
X228124Y521645D01*
X228056Y521925D01*
X228014Y522211D01*
X228000Y522500D01*
X228014Y522789D01*
X228056Y523075D01*
X228124Y523355D01*
X228220Y523628D01*
X228258Y523739D01*
X228275Y523856D01*
X228275Y523974D01*
X228255Y524091D01*
X228218Y524203D01*
X228164Y524307D01*
X228094Y524402D01*
X228009Y524485D01*
X227913Y524554D01*
X227808Y524607D01*
X227695Y524643D01*
X227579Y524660D01*
X227461Y524659D01*
X227387Y524647D01*
Y528130D01*
X227535Y528069D01*
X227765Y528014D01*
X228000Y527995D01*
X228059Y528000D01*
X231000D01*
Y527005D01*
X230567Y526984D01*
X230137Y526922D01*
X229716Y526818D01*
X229306Y526675D01*
X229200Y526622D01*
X229104Y526553D01*
X229019Y526470D01*
X228949Y526375D01*
X228894Y526269D01*
X228857Y526157D01*
X228837Y526040D01*
X228836Y525921D01*
X228854Y525804D01*
X228890Y525691D01*
X228943Y525585D01*
X229012Y525488D01*
X229095Y525404D01*
X229191Y525333D01*
X229296Y525279D01*
X229408Y525241D01*
X229525Y525222D01*
X229644Y525221D01*
X229761Y525239D01*
X229874Y525277D01*
X230145Y525376D01*
X230425Y525444D01*
X230711Y525486D01*
X231000Y525500D01*
Y519500D01*
X230711Y519514D01*
X230425Y519556D01*
X230145Y519624D01*
X229872Y519720D01*
X229761Y519758D01*
X229644Y519775D01*
X229526Y519775D01*
X229409Y519755D01*
X229297Y519718D01*
X229193Y519664D01*
X229098Y519594D01*
X229015Y519509D01*
X228946Y519413D01*
X228893Y519308D01*
X228857Y519195D01*
X228840Y519079D01*
X228841Y518961D01*
X228860Y518844D01*
X228897Y518732D01*
X228952Y518627D01*
X229022Y518532D01*
X229106Y518449D01*
X229202Y518381D01*
X229308Y518330D01*
X229716Y518182D01*
X230137Y518078D01*
X230567Y518016D01*
X231000Y517995D01*
Y472000D01*
X227387Y468387D01*
G37*
G36*
X225613Y466613D02*Y501353D01*
X225656Y501360D01*
X225768Y501397D01*
X225873Y501452D01*
X225968Y501522D01*
X226051Y501606D01*
X226119Y501702D01*
X226170Y501808D01*
X226318Y502216D01*
X226422Y502637D01*
X226484Y503067D01*
X226505Y503500D01*
X226484Y503933D01*
X226422Y504363D01*
X226318Y504784D01*
X226175Y505194D01*
X226122Y505300D01*
X226053Y505396D01*
X225970Y505481D01*
X225875Y505551D01*
X225769Y505606D01*
X225657Y505643D01*
X225613Y505651D01*
Y549120D01*
X226007Y549361D01*
X226617Y549883D01*
X227139Y550493D01*
X227387Y550898D01*
Y536870D01*
X227317Y536841D01*
X227116Y536717D01*
X226936Y536564D01*
X226783Y536384D01*
X226659Y536183D01*
X226569Y535965D01*
X226514Y535735D01*
X226495Y535500D01*
X226500Y535441D01*
Y529559D01*
X226495Y529500D01*
X226514Y529265D01*
X226514Y529265D01*
X226569Y529035D01*
X226659Y528817D01*
X226783Y528616D01*
X226936Y528436D01*
X227116Y528283D01*
X227317Y528159D01*
X227387Y528130D01*
Y524647D01*
X227344Y524640D01*
X227232Y524603D01*
X227127Y524548D01*
X227032Y524478D01*
X226949Y524394D01*
X226881Y524298D01*
X226830Y524192D01*
X226682Y523784D01*
X226578Y523363D01*
X226516Y522933D01*
X226495Y522500D01*
X226516Y522067D01*
X226578Y521637D01*
X226682Y521216D01*
X226825Y520806D01*
X226878Y520700D01*
X226947Y520604D01*
X227030Y520519D01*
X227125Y520449D01*
X227231Y520394D01*
X227343Y520357D01*
X227387Y520349D01*
Y468387D01*
X225613Y466613D01*
G37*
G36*
X225000Y466000D02*X222998D01*
Y499111D01*
X223284Y499182D01*
X223694Y499325D01*
X223800Y499378D01*
X223896Y499447D01*
X223981Y499530D01*
X224051Y499625D01*
X224106Y499731D01*
X224143Y499843D01*
X224163Y499960D01*
X224164Y500079D01*
X224146Y500196D01*
X224110Y500309D01*
X224057Y500415D01*
X223988Y500512D01*
X223905Y500596D01*
X223809Y500667D01*
X223704Y500721D01*
X223592Y500759D01*
X223475Y500778D01*
X223356Y500779D01*
X223239Y500761D01*
X223126Y500723D01*
X222998Y500676D01*
Y506326D01*
X223128Y506280D01*
X223239Y506242D01*
X223356Y506225D01*
X223474Y506225D01*
X223591Y506245D01*
X223703Y506282D01*
X223807Y506336D01*
X223902Y506406D01*
X223985Y506491D01*
X224054Y506587D01*
X224107Y506692D01*
X224143Y506805D01*
X224160Y506921D01*
X224159Y507039D01*
X224140Y507156D01*
X224103Y507268D01*
X224048Y507373D01*
X223978Y507468D01*
X223894Y507551D01*
X223798Y507619D01*
X223692Y507670D01*
X223284Y507818D01*
X222998Y507889D01*
Y548384D01*
X223000Y548384D01*
X223800Y548447D01*
X224581Y548635D01*
X225322Y548942D01*
X225613Y549120D01*
Y505651D01*
X225540Y505663D01*
X225421Y505664D01*
X225304Y505646D01*
X225191Y505610D01*
X225085Y505557D01*
X224988Y505488D01*
X224904Y505405D01*
X224833Y505309D01*
X224779Y505204D01*
X224741Y505092D01*
X224722Y504975D01*
X224721Y504856D01*
X224739Y504739D01*
X224777Y504626D01*
X224876Y504355D01*
X224944Y504075D01*
X224986Y503789D01*
X225000Y503500D01*
X224986Y503211D01*
X224944Y502925D01*
X224876Y502645D01*
X224780Y502372D01*
X224742Y502261D01*
X224725Y502144D01*
X224725Y502026D01*
X224745Y501909D01*
X224782Y501797D01*
X224836Y501693D01*
X224906Y501598D01*
X224991Y501515D01*
X225087Y501446D01*
X225192Y501393D01*
X225305Y501357D01*
X225421Y501340D01*
X225539Y501341D01*
X225613Y501353D01*
Y466613D01*
X225000Y466000D01*
G37*
G36*
X231000Y561000D02*Y558192D01*
X230678Y558058D01*
X229993Y557639D01*
X229383Y557117D01*
X228861Y556507D01*
X228442Y555822D01*
X228135Y555081D01*
X228000Y554520D01*
X227865Y555081D01*
X227558Y555822D01*
X227139Y556507D01*
X226617Y557117D01*
X226007Y557639D01*
X225322Y558058D01*
X224581Y558365D01*
X223800Y558553D01*
X223000Y558616D01*
X222998Y558616D01*
Y561000D01*
X231000D01*
G37*
G36*
X218442Y551178D02*X218861Y550493D01*
X219383Y549883D01*
X219993Y549361D01*
X220678Y548942D01*
X221419Y548635D01*
X222200Y548447D01*
X222998Y548384D01*
Y507889D01*
X222863Y507922D01*
X222433Y507984D01*
X222000Y508005D01*
X221567Y507984D01*
X221137Y507922D01*
X220716Y507818D01*
X220306Y507675D01*
X220200Y507622D01*
X220104Y507553D01*
X220019Y507470D01*
X219949Y507375D01*
X219894Y507269D01*
X219857Y507157D01*
X219837Y507040D01*
X219836Y506921D01*
X219854Y506804D01*
X219890Y506691D01*
X219943Y506585D01*
X220012Y506488D01*
X220095Y506404D01*
X220191Y506333D01*
X220296Y506279D01*
X220408Y506241D01*
X220525Y506222D01*
X220644Y506221D01*
X220761Y506239D01*
X220874Y506277D01*
X221145Y506376D01*
X221425Y506444D01*
X221711Y506486D01*
X222000Y506500D01*
X222289Y506486D01*
X222575Y506444D01*
X222855Y506376D01*
X222998Y506326D01*
Y500676D01*
X222855Y500624D01*
X222575Y500556D01*
X222289Y500514D01*
X222000Y500500D01*
X221711Y500514D01*
X221425Y500556D01*
X221145Y500624D01*
X220872Y500720D01*
X220761Y500758D01*
X220644Y500775D01*
X220526Y500775D01*
X220409Y500755D01*
X220297Y500718D01*
X220193Y500664D01*
X220098Y500594D01*
X220015Y500509D01*
X219946Y500413D01*
X219893Y500308D01*
X219857Y500195D01*
X219840Y500079D01*
X219841Y499961D01*
X219860Y499844D01*
X219897Y499732D01*
X219952Y499627D01*
X220022Y499532D01*
X220106Y499449D01*
X220202Y499381D01*
X220308Y499330D01*
X220716Y499182D01*
X221137Y499078D01*
X221567Y499016D01*
X222000Y498995D01*
X222433Y499016D01*
X222863Y499078D01*
X222998Y499111D01*
Y466000D01*
X218387D01*
Y501349D01*
X218460Y501337D01*
X218579Y501336D01*
X218696Y501354D01*
X218809Y501390D01*
X218915Y501443D01*
X219012Y501512D01*
X219096Y501595D01*
X219167Y501691D01*
X219221Y501796D01*
X219259Y501908D01*
X219278Y502025D01*
X219279Y502144D01*
X219261Y502261D01*
X219223Y502374D01*
X219124Y502645D01*
X219056Y502925D01*
X219014Y503211D01*
X219000Y503500D01*
X219014Y503789D01*
X219056Y504075D01*
X219124Y504355D01*
X219220Y504628D01*
X219258Y504739D01*
X219275Y504856D01*
X219275Y504974D01*
X219255Y505091D01*
X219218Y505203D01*
X219164Y505307D01*
X219094Y505402D01*
X219009Y505485D01*
X218913Y505554D01*
X218808Y505607D01*
X218695Y505643D01*
X218579Y505660D01*
X218461Y505659D01*
X218387Y505647D01*
Y551310D01*
X218442Y551178D01*
G37*
G36*
X216541Y548400D02*X216600Y548395D01*
X216835Y548414D01*
X216835Y548414D01*
X217065Y548469D01*
X217283Y548559D01*
X217484Y548683D01*
X217664Y548836D01*
X217817Y549016D01*
X217941Y549217D01*
X218031Y549435D01*
X218086Y549665D01*
X218105Y549900D01*
X218100Y549959D01*
Y552063D01*
X218135Y551919D01*
X218387Y551310D01*
Y505647D01*
X218344Y505640D01*
X218232Y505603D01*
X218127Y505548D01*
X218032Y505478D01*
X217949Y505394D01*
X217881Y505298D01*
X217830Y505192D01*
X217682Y504784D01*
X217578Y504363D01*
X217516Y503933D01*
X217495Y503500D01*
X217516Y503067D01*
X217578Y502637D01*
X217682Y502216D01*
X217825Y501806D01*
X217878Y501700D01*
X217947Y501604D01*
X218030Y501519D01*
X218125Y501449D01*
X218231Y501394D01*
X218343Y501357D01*
X218387Y501349D01*
Y466000D01*
X213613D01*
Y476353D01*
X213656Y476360D01*
X213768Y476397D01*
X213873Y476452D01*
X213968Y476522D01*
X214051Y476606D01*
X214119Y476702D01*
X214170Y476808D01*
X214318Y477216D01*
X214422Y477637D01*
X214484Y478067D01*
X214505Y478500D01*
X214484Y478933D01*
X214422Y479363D01*
X214318Y479784D01*
X214175Y480194D01*
X214122Y480300D01*
X214053Y480396D01*
X213970Y480481D01*
X213875Y480551D01*
X213769Y480606D01*
X213657Y480643D01*
X213613Y480651D01*
Y499000D01*
X214941D01*
X215000Y498995D01*
X215235Y499014D01*
X215235Y499014D01*
X215465Y499069D01*
X215683Y499159D01*
X215884Y499283D01*
X216064Y499436D01*
X216217Y499616D01*
X216341Y499817D01*
X216431Y500035D01*
X216486Y500265D01*
X216505Y500500D01*
X216500Y500559D01*
Y506441D01*
X216505Y506500D01*
X216486Y506735D01*
X216486Y506735D01*
X216431Y506965D01*
X216341Y507183D01*
X216217Y507384D01*
X216064Y507564D01*
X215884Y507717D01*
X215683Y507841D01*
X215465Y507931D01*
X215235Y507986D01*
X215000Y508005D01*
X214941Y508000D01*
X213613D01*
Y548400D01*
X216541D01*
G37*
G36*
X210002Y466000D02*Y473995D01*
X210433Y474016D01*
X210863Y474078D01*
X211284Y474182D01*
X211694Y474325D01*
X211800Y474378D01*
X211896Y474447D01*
X211981Y474530D01*
X212051Y474625D01*
X212106Y474731D01*
X212143Y474843D01*
X212163Y474960D01*
X212164Y475079D01*
X212146Y475196D01*
X212110Y475309D01*
X212057Y475415D01*
X211988Y475512D01*
X211905Y475596D01*
X211809Y475667D01*
X211704Y475721D01*
X211592Y475759D01*
X211475Y475778D01*
X211356Y475779D01*
X211239Y475761D01*
X211126Y475723D01*
X210855Y475624D01*
X210575Y475556D01*
X210289Y475514D01*
X210002Y475500D01*
Y481500D01*
X210289Y481486D01*
X210575Y481444D01*
X210855Y481376D01*
X211128Y481280D01*
X211239Y481242D01*
X211356Y481225D01*
X211474Y481225D01*
X211591Y481245D01*
X211703Y481282D01*
X211807Y481336D01*
X211902Y481406D01*
X211985Y481491D01*
X212054Y481587D01*
X212107Y481692D01*
X212143Y481805D01*
X212160Y481921D01*
X212159Y482039D01*
X212140Y482156D01*
X212103Y482268D01*
X212048Y482373D01*
X211978Y482468D01*
X211894Y482551D01*
X211798Y482619D01*
X211692Y482670D01*
X211284Y482818D01*
X210863Y482922D01*
X210433Y482984D01*
X210002Y483005D01*
Y499000D01*
X213613D01*
Y480651D01*
X213540Y480663D01*
X213421Y480664D01*
X213304Y480646D01*
X213191Y480610D01*
X213085Y480557D01*
X212988Y480488D01*
X212904Y480405D01*
X212833Y480309D01*
X212779Y480204D01*
X212741Y480092D01*
X212722Y479975D01*
X212721Y479856D01*
X212739Y479739D01*
X212777Y479626D01*
X212876Y479355D01*
X212944Y479075D01*
X212986Y478789D01*
X213000Y478500D01*
X212986Y478211D01*
X212944Y477925D01*
X212876Y477645D01*
X212780Y477372D01*
X212742Y477261D01*
X212725Y477144D01*
X212725Y477026D01*
X212745Y476909D01*
X212782Y476797D01*
X212836Y476693D01*
X212906Y476598D01*
X212991Y476515D01*
X213087Y476446D01*
X213192Y476393D01*
X213305Y476357D01*
X213421Y476340D01*
X213539Y476341D01*
X213613Y476353D01*
Y466000D01*
X210002D01*
G37*
G36*
X213613Y548400D02*Y508000D01*
X210002D01*
Y548400D01*
X213613D01*
G37*
G36*
X222998Y561000D02*Y558616D01*
X222200Y558553D01*
X221419Y558365D01*
X220678Y558058D01*
X219993Y557639D01*
X219383Y557117D01*
X218861Y556507D01*
X218442Y555822D01*
X218135Y555081D01*
X218100Y554937D01*
Y557041D01*
X218105Y557100D01*
X218086Y557335D01*
X218086Y557335D01*
X218031Y557565D01*
X217941Y557783D01*
X217817Y557984D01*
X217664Y558164D01*
X217484Y558317D01*
X217283Y558441D01*
X217065Y558531D01*
X216835Y558586D01*
X216600Y558605D01*
X216541Y558600D01*
X210002D01*
Y561000D01*
X222998D01*
G37*
G36*
X210002D02*Y558600D01*
X209459D01*
X209400Y558605D01*
X209165Y558586D01*
X209165Y558586D01*
X208935Y558531D01*
X208717Y558441D01*
X208516Y558317D01*
X208336Y558164D01*
X208183Y557984D01*
X208059Y557783D01*
X207969Y557565D01*
X207914Y557335D01*
X207895Y557100D01*
X207900Y557041D01*
Y549959D01*
X207895Y549900D01*
X207914Y549665D01*
X207914Y549665D01*
X207969Y549435D01*
X208059Y549217D01*
X208183Y549016D01*
X208336Y548836D01*
X208516Y548683D01*
X208717Y548559D01*
X208935Y548469D01*
X209165Y548414D01*
X209400Y548395D01*
X209459Y548400D01*
X210002D01*
Y508000D01*
X209059D01*
X209000Y508005D01*
X208765Y507986D01*
X208765Y507986D01*
X208535Y507931D01*
X208317Y507841D01*
X208116Y507717D01*
X207936Y507564D01*
X207783Y507384D01*
X207659Y507183D01*
X207569Y506965D01*
X207514Y506735D01*
X207495Y506500D01*
X207500Y506441D01*
Y500559D01*
X207495Y500500D01*
X207514Y500265D01*
X207514Y500265D01*
X207569Y500035D01*
X207659Y499817D01*
X207783Y499616D01*
X207936Y499436D01*
X208116Y499283D01*
X208317Y499159D01*
X208535Y499069D01*
X208765Y499014D01*
X209000Y498995D01*
X209059Y499000D01*
X210002D01*
Y483005D01*
X210000Y483005D01*
X209567Y482984D01*
X209137Y482922D01*
X208716Y482818D01*
X208306Y482675D01*
X208200Y482622D01*
X208104Y482553D01*
X208019Y482470D01*
X207949Y482375D01*
X207894Y482269D01*
X207857Y482157D01*
X207837Y482040D01*
X207836Y481921D01*
X207854Y481804D01*
X207890Y481691D01*
X207943Y481585D01*
X208012Y481488D01*
X208095Y481404D01*
X208191Y481333D01*
X208296Y481279D01*
X208408Y481241D01*
X208525Y481222D01*
X208644Y481221D01*
X208761Y481239D01*
X208874Y481277D01*
X209145Y481376D01*
X209425Y481444D01*
X209711Y481486D01*
X210000Y481500D01*
X210002Y481500D01*
Y475500D01*
X210000Y475500D01*
X209711Y475514D01*
X209425Y475556D01*
X209145Y475624D01*
X208872Y475720D01*
X208761Y475758D01*
X208644Y475775D01*
X208526Y475775D01*
X208409Y475755D01*
X208297Y475718D01*
X208193Y475664D01*
X208098Y475594D01*
X208015Y475509D01*
X207946Y475413D01*
X207893Y475308D01*
X207857Y475195D01*
X207840Y475079D01*
X207841Y474961D01*
X207860Y474844D01*
X207897Y474732D01*
X207952Y474627D01*
X208022Y474532D01*
X208106Y474449D01*
X208202Y474381D01*
X208308Y474330D01*
X208716Y474182D01*
X209137Y474078D01*
X209567Y474016D01*
X210000Y473995D01*
X210002Y473995D01*
Y466000D01*
X206387D01*
Y476349D01*
X206460Y476337D01*
X206579Y476336D01*
X206696Y476354D01*
X206809Y476390D01*
X206915Y476443D01*
X207012Y476512D01*
X207096Y476595D01*
X207167Y476691D01*
X207221Y476796D01*
X207259Y476908D01*
X207278Y477025D01*
X207279Y477144D01*
X207261Y477261D01*
X207223Y477374D01*
X207124Y477645D01*
X207056Y477925D01*
X207014Y478211D01*
X207000Y478500D01*
X207014Y478789D01*
X207056Y479075D01*
X207124Y479355D01*
X207220Y479628D01*
X207258Y479739D01*
X207275Y479856D01*
X207275Y479974D01*
X207255Y480091D01*
X207218Y480203D01*
X207164Y480307D01*
X207094Y480402D01*
X207009Y480485D01*
X206913Y480554D01*
X206808Y480607D01*
X206695Y480643D01*
X206579Y480660D01*
X206461Y480659D01*
X206387Y480647D01*
Y539278D01*
X206554Y539683D01*
X206711Y540333D01*
X206750Y541000D01*
X206711Y541667D01*
X206554Y542317D01*
X206387Y542722D01*
Y561000D01*
X210002D01*
G37*
G36*
X202493Y466000D02*Y474000D01*
X202941D01*
X203000Y473995D01*
X203235Y474014D01*
X203235Y474014D01*
X203465Y474069D01*
X203683Y474159D01*
X203884Y474283D01*
X204064Y474436D01*
X204217Y474616D01*
X204341Y474817D01*
X204431Y475035D01*
X204486Y475265D01*
X204505Y475500D01*
X204500Y475559D01*
Y481441D01*
X204505Y481500D01*
X204486Y481735D01*
X204486Y481735D01*
X204431Y481965D01*
X204341Y482183D01*
X204217Y482384D01*
X204064Y482564D01*
X203884Y482717D01*
X203683Y482841D01*
X203465Y482931D01*
X203235Y482986D01*
X203000Y483005D01*
X202941Y483000D01*
X202493D01*
Y506744D01*
X202506Y506751D01*
X203014Y507186D01*
X203449Y507694D01*
X203798Y508265D01*
X204054Y508883D01*
X204211Y509533D01*
X204250Y510200D01*
X204211Y510867D01*
X204054Y511517D01*
X203798Y512135D01*
X203449Y512706D01*
X203014Y513214D01*
X202506Y513649D01*
X202493Y513656D01*
Y521468D01*
X202514Y521486D01*
X202949Y521994D01*
X203298Y522565D01*
X203554Y523183D01*
X203711Y523833D01*
X203750Y524500D01*
X203711Y525167D01*
X203554Y525817D01*
X203298Y526435D01*
X202949Y527006D01*
X202514Y527514D01*
X202493Y527532D01*
Y536737D01*
X202500Y536737D01*
X203167Y536789D01*
X203817Y536946D01*
X204435Y537202D01*
X205006Y537551D01*
X205514Y537986D01*
X205949Y538494D01*
X206298Y539065D01*
X206387Y539278D01*
Y480647D01*
X206344Y480640D01*
X206232Y480603D01*
X206127Y480548D01*
X206032Y480478D01*
X205949Y480394D01*
X205881Y480298D01*
X205830Y480192D01*
X205682Y479784D01*
X205578Y479363D01*
X205516Y478933D01*
X205495Y478500D01*
X205516Y478067D01*
X205578Y477637D01*
X205682Y477216D01*
X205825Y476806D01*
X205878Y476700D01*
X205947Y476604D01*
X206030Y476519D01*
X206125Y476449D01*
X206231Y476394D01*
X206343Y476357D01*
X206387Y476349D01*
Y466000D01*
X202493D01*
G37*
G36*
X206387Y561000D02*Y542722D01*
X206298Y542935D01*
X205949Y543506D01*
X205514Y544014D01*
X205006Y544449D01*
X204435Y544798D01*
X203817Y545054D01*
X203167Y545211D01*
X202500Y545263D01*
X202493Y545263D01*
Y561000D01*
X206387D01*
G37*
G36*
X202493D02*Y545263D01*
X201833Y545211D01*
X201183Y545054D01*
X200565Y544798D01*
X199994Y544449D01*
X199486Y544014D01*
X199051Y543506D01*
X198702Y542935D01*
X198446Y542317D01*
X198289Y541667D01*
X198237Y541000D01*
X198289Y540333D01*
X198446Y539683D01*
X198702Y539065D01*
X199051Y538494D01*
X199486Y537986D01*
X199994Y537551D01*
X200565Y537202D01*
X201183Y536946D01*
X201833Y536789D01*
X202493Y536737D01*
Y527532D01*
X202006Y527949D01*
X201435Y528298D01*
X200817Y528554D01*
X200167Y528711D01*
X199500Y528763D01*
X198833Y528711D01*
X198183Y528554D01*
X197565Y528298D01*
X196994Y527949D01*
X196486Y527514D01*
X196051Y527006D01*
X195702Y526435D01*
X195446Y525817D01*
X195289Y525167D01*
X195237Y524500D01*
X195289Y523833D01*
X195446Y523183D01*
X195702Y522565D01*
X196051Y521994D01*
X196486Y521486D01*
X196994Y521051D01*
X197565Y520702D01*
X198183Y520446D01*
X198833Y520289D01*
X199500Y520237D01*
X200167Y520289D01*
X200817Y520446D01*
X201435Y520702D01*
X202006Y521051D01*
X202493Y521468D01*
Y513656D01*
X201935Y513998D01*
X201317Y514254D01*
X200667Y514411D01*
X200000Y514463D01*
X199333Y514411D01*
X198683Y514254D01*
X198065Y513998D01*
X197494Y513649D01*
X196986Y513214D01*
X196551Y512706D01*
X196202Y512135D01*
X195946Y511517D01*
X195789Y510867D01*
X195737Y510200D01*
X195789Y509533D01*
X195946Y508883D01*
X196202Y508265D01*
X196551Y507694D01*
X196986Y507186D01*
X197494Y506751D01*
X198065Y506402D01*
X198683Y506146D01*
X199333Y505989D01*
X200000Y505937D01*
X200667Y505989D01*
X201317Y506146D01*
X201935Y506402D01*
X202493Y506744D01*
Y483000D01*
X197059D01*
X197000Y483005D01*
X196765Y482986D01*
X196765Y482986D01*
X196535Y482931D01*
X196317Y482841D01*
X196116Y482717D01*
X195936Y482564D01*
X195783Y482384D01*
X195659Y482183D01*
X195569Y481965D01*
X195514Y481735D01*
X195495Y481500D01*
X195500Y481441D01*
Y475559D01*
X195495Y475500D01*
X195514Y475265D01*
X195514Y475265D01*
X195569Y475035D01*
X195659Y474817D01*
X195783Y474616D01*
X195936Y474436D01*
X196116Y474283D01*
X196317Y474159D01*
X196535Y474069D01*
X196765Y474014D01*
X197000Y473995D01*
X197059Y474000D01*
X202493D01*
Y466000D01*
X195000D01*
X182500Y478500D01*
Y487000D01*
X186402D01*
X186500Y486992D01*
X186892Y487023D01*
X186892Y487023D01*
X187275Y487115D01*
X187638Y487266D01*
X187974Y487471D01*
X188273Y487727D01*
X188529Y488026D01*
X188734Y488362D01*
X188885Y488725D01*
X188977Y489108D01*
X189008Y489500D01*
X189000Y489598D01*
Y497402D01*
X189008Y497500D01*
X188977Y497892D01*
X188977Y497892D01*
X188885Y498275D01*
X188734Y498638D01*
X188529Y498974D01*
X188273Y499273D01*
X187974Y499529D01*
X187638Y499734D01*
X187275Y499885D01*
X186892Y499977D01*
X186500Y500008D01*
X186402Y500000D01*
X182500D01*
Y561000D01*
X202493D01*
G37*
G36*
X182500D02*Y500000D01*
X178598D01*
X178500Y500008D01*
X178108Y499977D01*
X178108Y499977D01*
X177725Y499885D01*
X177362Y499734D01*
X177026Y499529D01*
X176727Y499273D01*
X176471Y498974D01*
X176266Y498638D01*
X176115Y498275D01*
X176023Y497892D01*
X175992Y497500D01*
X176000Y497402D01*
Y489598D01*
X175992Y489500D01*
X176023Y489108D01*
X176023Y489108D01*
X176115Y488725D01*
X176266Y488362D01*
X176471Y488026D01*
X176727Y487727D01*
X177026Y487471D01*
X177362Y487266D01*
X177725Y487115D01*
X178108Y487023D01*
X178500Y486992D01*
X178598Y487000D01*
X182500D01*
Y478500D01*
X162500Y498500D01*
Y505950D01*
X162691D01*
X162750Y505945D01*
X162985Y505964D01*
X162985Y505964D01*
X163215Y506019D01*
X163433Y506109D01*
X163634Y506233D01*
X163814Y506386D01*
X163967Y506566D01*
X164091Y506767D01*
X164181Y506985D01*
X164236Y507215D01*
X164255Y507450D01*
X164250Y507509D01*
Y512891D01*
X164255Y512950D01*
X164236Y513185D01*
X164236Y513185D01*
X164181Y513415D01*
X164091Y513633D01*
X163967Y513834D01*
X163814Y514014D01*
X163634Y514167D01*
X163433Y514291D01*
X163215Y514381D01*
X162985Y514436D01*
X162750Y514455D01*
X162691Y514450D01*
X162500D01*
Y521941D01*
X162558Y521891D01*
X162658Y521830D01*
X162768Y521785D01*
X162882Y521757D01*
X163000Y521748D01*
X163118Y521757D01*
X163232Y521785D01*
X163342Y521830D01*
X163442Y521891D01*
X163532Y521968D01*
X163609Y522058D01*
X163670Y522158D01*
X163715Y522268D01*
X163743Y522382D01*
X163750Y522500D01*
Y526500D01*
X163743Y526618D01*
X163715Y526732D01*
X163670Y526842D01*
X163609Y526942D01*
X163532Y527032D01*
X163442Y527109D01*
X163342Y527170D01*
X163232Y527216D01*
X163118Y527243D01*
X163000Y527252D01*
X162882Y527243D01*
X162768Y527216D01*
X162658Y527170D01*
X162558Y527109D01*
X162500Y527059D01*
Y536750D01*
X165191D01*
X165250Y536745D01*
X165485Y536764D01*
X165485Y536764D01*
X165715Y536819D01*
X165933Y536909D01*
X166134Y537033D01*
X166314Y537186D01*
X166467Y537366D01*
X166591Y537567D01*
X166681Y537785D01*
X166736Y538015D01*
X166755Y538250D01*
X166750Y538309D01*
Y543691D01*
X166755Y543750D01*
X166736Y543985D01*
X166736Y543985D01*
X166681Y544215D01*
X166591Y544433D01*
X166467Y544634D01*
X166314Y544814D01*
X166134Y544967D01*
X165933Y545091D01*
X165715Y545181D01*
X165485Y545236D01*
X165250Y545255D01*
X165191Y545250D01*
X162500D01*
Y558500D01*
X165000Y561000D01*
X166500D01*
X182500D01*
G37*
G36*
X152500Y508500D02*Y548500D01*
X162500Y558500D01*
Y545250D01*
X159809D01*
X159750Y545255D01*
X159515Y545236D01*
X159515Y545236D01*
X159285Y545181D01*
X159067Y545091D01*
X158866Y544967D01*
X158686Y544814D01*
X158533Y544634D01*
X158409Y544433D01*
X158319Y544215D01*
X158264Y543985D01*
X158245Y543750D01*
X158250Y543691D01*
Y538309D01*
X158245Y538250D01*
X158264Y538015D01*
X158264Y538015D01*
X158319Y537785D01*
X158409Y537567D01*
X158533Y537366D01*
X158686Y537186D01*
X158866Y537033D01*
X159067Y536909D01*
X159285Y536819D01*
X159515Y536764D01*
X159750Y536745D01*
X159809Y536750D01*
X162500D01*
Y527059D01*
X162468Y527032D01*
X162391Y526942D01*
X162330Y526842D01*
X162284Y526732D01*
X162257Y526618D01*
X162250Y526500D01*
Y527250D01*
X161500D01*
X161618Y527257D01*
X161732Y527285D01*
X161842Y527330D01*
X161942Y527391D01*
X162032Y527468D01*
X162109Y527558D01*
X162170Y527658D01*
X162215Y527768D01*
X162243Y527882D01*
X162252Y528000D01*
X162243Y528118D01*
X162215Y528232D01*
X162170Y528342D01*
X162109Y528442D01*
X162032Y528532D01*
X161942Y528609D01*
X161842Y528670D01*
X161732Y528715D01*
X161618Y528743D01*
X161500Y528750D01*
X157500D01*
X157382Y528743D01*
X157268Y528715D01*
X157158Y528670D01*
X157058Y528609D01*
X156968Y528532D01*
X156891Y528442D01*
X156830Y528342D01*
X156784Y528232D01*
X156757Y528118D01*
X156748Y528000D01*
X156757Y527882D01*
X156784Y527768D01*
X156830Y527658D01*
X156891Y527558D01*
X156968Y527468D01*
X157058Y527391D01*
X157158Y527330D01*
X157268Y527284D01*
X157382Y527257D01*
X157500Y527250D01*
X156750D01*
Y526500D01*
X156743Y526618D01*
X156715Y526732D01*
X156670Y526842D01*
X156609Y526942D01*
X156532Y527032D01*
X156442Y527109D01*
X156342Y527170D01*
X156232Y527215D01*
X156118Y527243D01*
X156000Y527252D01*
X155882Y527243D01*
X155768Y527215D01*
X155658Y527170D01*
X155558Y527109D01*
X155468Y527032D01*
X155391Y526942D01*
X155330Y526842D01*
X155285Y526732D01*
X155257Y526618D01*
X155250Y526500D01*
Y522500D01*
X155257Y522382D01*
X155285Y522268D01*
X155330Y522158D01*
X155391Y522058D01*
X155468Y521968D01*
X155558Y521891D01*
X155658Y521830D01*
X155768Y521784D01*
X155882Y521757D01*
X156000Y521748D01*
X156118Y521757D01*
X156232Y521784D01*
X156342Y521830D01*
X156442Y521891D01*
X156532Y521968D01*
X156609Y522058D01*
X156670Y522158D01*
X156716Y522268D01*
X156743Y522382D01*
X156750Y522500D01*
Y521750D01*
X157500D01*
X157382Y521743D01*
X157268Y521715D01*
X157158Y521670D01*
X157058Y521609D01*
X156968Y521532D01*
X156891Y521442D01*
X156830Y521342D01*
X156785Y521232D01*
X156757Y521118D01*
X156748Y521000D01*
X156757Y520882D01*
X156785Y520768D01*
X156830Y520658D01*
X156891Y520558D01*
X156968Y520468D01*
X157058Y520391D01*
X157158Y520330D01*
X157268Y520285D01*
X157382Y520257D01*
X157500Y520250D01*
X161500D01*
X161618Y520257D01*
X161732Y520285D01*
X161842Y520330D01*
X161942Y520391D01*
X162032Y520468D01*
X162109Y520558D01*
X162170Y520658D01*
X162216Y520768D01*
X162243Y520882D01*
X162252Y521000D01*
X162243Y521118D01*
X162216Y521232D01*
X162170Y521342D01*
X162109Y521442D01*
X162032Y521532D01*
X161942Y521609D01*
X161842Y521670D01*
X161732Y521716D01*
X161618Y521743D01*
X161500Y521750D01*
X162250D01*
Y522500D01*
X162257Y522382D01*
X162285Y522268D01*
X162330Y522158D01*
X162391Y522058D01*
X162468Y521968D01*
X162500Y521941D01*
Y514450D01*
X157309D01*
X157250Y514455D01*
X157015Y514436D01*
X157015Y514436D01*
X156785Y514381D01*
X156567Y514291D01*
X156366Y514167D01*
X156186Y514014D01*
X156033Y513834D01*
X155909Y513633D01*
X155819Y513415D01*
X155764Y513185D01*
X155745Y512950D01*
X155750Y512891D01*
Y507509D01*
X155745Y507450D01*
X155764Y507215D01*
X155764Y507215D01*
X155819Y506985D01*
X155909Y506767D01*
X156033Y506566D01*
X156186Y506386D01*
X156366Y506233D01*
X156567Y506109D01*
X156785Y506019D01*
X157015Y505964D01*
X157250Y505945D01*
X157309Y505950D01*
X162500D01*
Y498500D01*
X152500Y508500D01*
G37*
G36*
X247500Y548500D02*Y538500D01*
X240000D01*
Y548500D01*
X247500D01*
G37*
G54D31*X25000Y572000D02*X27500Y574500D01*
G54D32*Y571000D02*Y569500D01*
G54D31*X25000Y572000D02*Y568500D01*
X26500Y567000D02*X25000Y568500D01*
X24000Y564000D02*X27500D01*
X28500Y567000D02*Y565000D01*
X25500D02*Y564500D01*
G54D32*X28500Y572000D02*X35000D01*
X28500Y568500D02*X27500Y569500D01*
X28500Y568500D02*X30000D01*
G54D31*X27500Y574500D02*X36500D01*
X39500Y566500D02*X37500Y568500D01*
G54D32*X36500Y570500D02*X34500Y568500D01*
G54D31*X38500Y570000D02*X39500Y569000D01*
Y566500D01*
G54D32*X35000Y572000D02*X36500Y570500D01*
G54D31*Y574500D02*X38500Y572500D01*
X30000Y568500D02*X28500Y567000D01*
X30000Y568500D02*X31000D01*
X38500Y572500D02*Y570000D01*
X30500Y568500D02*X37500D01*
G54D32*X27500Y571000D02*X28500Y572000D01*
G54D31*X47500Y576000D02*Y563000D01*
Y576000D02*X52000D01*
X30000D02*X34000D01*
X52000D02*Y563000D01*
G54D33*X24000Y523000D02*X32000Y531000D01*
G54D31*X26500Y567000D02*Y566000D01*
X28500Y565000D02*X27500Y564000D01*
X43000Y565500D02*X41500Y564000D01*
X45500Y563000D02*X43000Y565500D01*
X43500Y562000D02*X45500D01*
X43500D02*X41500Y564000D01*
X45500Y563000D02*Y562000D01*
X47000Y560500D02*X45500Y562000D01*
X47000Y560500D02*X49000D01*
X49500Y561000D02*X49000Y560500D01*
X49500Y562000D02*Y561000D01*
Y562000D02*X48500Y563000D01*
X50500D02*X49500Y562000D01*
X50500Y563000D02*X52000D01*
X47500D02*X52000D01*
X24000Y566000D02*X26500D01*
X23000Y565000D02*X24000Y566000D01*
Y564000D02*X23000Y565000D01*
X21500D02*X23000D01*
X32500Y575500D02*Y575000D01*
G54D34*X40000Y453000D02*Y465000D01*
G54D33*X22000D02*X62000D01*
X66000Y469000D01*
X68000D01*
X73000Y464000D01*
X46500Y478000D02*X70500D01*
X32000Y492500D02*Y504500D01*
Y492500D02*X46500Y478000D01*
X32000Y504500D02*X24000Y512500D01*
Y523000D01*
G54D35*X81500Y409500D02*X96500Y424500D01*
G54D36*X108500Y419500D02*X112500Y415500D01*
X179500D01*
X96500Y434500D02*X103500D01*
X108500Y429500D01*
Y419500D01*
G54D35*X77500Y409500D02*X264500D01*
G54D36*X178500Y415500D02*X230500D01*
G54D35*X253000Y430500D02*X248000Y425500D01*
X240500D01*
X264500Y409500D02*X287500Y432500D01*
G54D33*X112500Y441500D02*X119500Y434500D01*
X112500Y441500D02*X80500D01*
X263500Y473500D02*X283500D01*
X270500Y478500D02*X275500Y473500D01*
X270500Y478500D02*Y540500D01*
G54D35*X263000Y544500D02*X266500Y548000D01*
G54D33*X297500Y473500D02*X280000D01*
X297479Y473479D02*X297500Y473500D01*
G54D35*X307000Y475500D02*Y529000D01*
X266500Y548000D02*X288000D01*
X307000Y529000D01*
X263000Y544500D02*X246000D01*
X245000Y543500D01*
G54D33*X70500Y478000D02*X83500Y465000D01*
X178500D01*
G54D34*X131500Y487500D02*X140000D01*
X144000Y483500D01*
G54D33*X131500Y473500D02*X179000D01*
X279500Y463500D02*X297500D01*
X251000Y461000D02*X191000D01*
X179000Y473500D02*X191500Y461000D01*
G54D35*X297500Y453500D02*X278500D01*
G54D33*X188500Y454500D02*X254000D01*
X178500Y465000D02*X189000Y454500D01*
X254000D02*X273000Y473500D01*
X251000Y461000D02*X263500Y473500D01*
G54D35*X278500Y463500D02*X253000Y438000D01*
X297500Y463500D02*X280500D01*
G54D33*X297500D02*Y473500D01*
G54D35*X305000D01*
X307000Y475500D01*
X253000Y438000D02*Y430500D01*
X287500Y432500D02*Y453500D01*
G54D36*X230500Y415500D02*X240500Y425500D01*
G54D35*X20000Y453000D02*X7500Y440500D01*
Y414500D01*
X12500Y409500D01*
G54D33*X30000Y423000D02*X36000Y429000D01*
X66500Y429500D03*
X36000Y429000D02*X68000D01*
X80500Y441500D01*
G54D35*X12500Y409500D02*X81500D01*
G54D31*X10500Y553000D02*Y556500D01*
X11000Y557000D01*
X10000Y554500D02*X11000D01*
X12000Y555500D02*Y556500D01*
Y555500D02*X12500Y555000D01*
X13500D01*
X14000Y555500D01*
Y556500D01*
X13500Y557000D02*X14000Y556500D01*
X12500Y557000D02*X13500D01*
X12000Y556500D02*X12500Y557000D01*
X17500Y553500D02*Y557000D01*
Y553500D02*X18000Y553000D01*
X18500D01*
X17000Y555000D02*X18000D01*
X19500Y553000D02*Y556500D01*
X20000Y557000D01*
X22500Y555000D02*X23000Y555500D01*
X21500Y555000D02*X22500D01*
X21000Y555500D02*X21500Y555000D01*
X21000Y555500D02*Y556500D01*
X21500Y557000D01*
X23000Y555000D02*Y556500D01*
X23500Y557000D01*
X21500D02*X22500D01*
X23000Y556500D01*
X25200Y555500D02*Y557000D01*
Y555500D02*X25700Y555000D01*
X26200D01*
X26700Y555500D01*
Y557000D01*
Y555500D02*X27200Y555000D01*
X27700D01*
X28200Y555500D01*
Y557000D01*
X24700Y555000D02*X25200Y555500D01*
X29400Y554000D02*Y554500D01*
Y555500D02*Y557000D01*
X30900Y555500D02*Y557000D01*
Y555500D02*X31400Y555000D01*
X31900D01*
X32400Y555500D01*
Y557000D01*
X30400Y555000D02*X30900Y555500D01*
X35100Y555000D02*X35600Y555500D01*
X34100Y555000D02*X35100D01*
X33600Y555500D02*X34100Y555000D01*
X33600Y555500D02*Y556500D01*
X34100Y557000D01*
X35100D01*
X35600Y556500D01*
X33600Y558000D02*X34100Y558500D01*
X35100D01*
X35600Y558000D01*
Y555000D02*Y558000D01*
X40600Y553000D02*Y557000D01*
X40100D02*X40600Y556500D01*
X39100Y557000D02*X40100D01*
X38600Y556500D02*X39100Y557000D01*
X38600Y555500D02*Y556500D01*
Y555500D02*X39100Y555000D01*
X40100D01*
X40600Y555500D01*
X41800Y555000D02*Y556500D01*
X42300Y557000D01*
X43300D01*
X43800Y556500D01*
Y555000D02*Y556500D01*
X45500Y555000D02*X47000D01*
X45000Y555500D02*X45500Y555000D01*
X45000Y555500D02*Y556500D01*
X45500Y557000D01*
X47000D01*
X48200Y553000D02*Y557000D01*
Y555500D02*X49700Y557000D01*
X48200Y555500D02*X49200Y554500D01*
X51400Y557000D02*X52900D01*
X53400Y556500D01*
X52900Y556000D02*X53400Y556500D01*
X51400Y556000D02*X52900D01*
X50900Y555500D02*X51400Y556000D01*
X50900Y555500D02*X51400Y555000D01*
X52900D01*
X53400Y555500D01*
X50900Y556500D02*X51400Y557000D01*
X54600D02*X55100D01*
X15000Y545000D02*X16500D01*
Y548500D01*
X16000Y549000D02*X16500Y548500D01*
X15500Y549000D02*X16000D01*
X15000Y548500D02*X15500Y549000D01*
X17700Y547000D02*Y548500D01*
X18200Y549000D01*
X19200D01*
X19700Y548500D01*
Y547000D02*Y548500D01*
X21400Y549000D02*X22900D01*
X23400Y548500D01*
X22900Y548000D02*X23400Y548500D01*
X21400Y548000D02*X22900D01*
X20900Y547500D02*X21400Y548000D01*
X20900Y547500D02*X21400Y547000D01*
X22900D01*
X23400Y547500D01*
X20900Y548500D02*X21400Y549000D01*
X25100Y545000D02*Y548500D01*
X25600Y549000D01*
X24600Y546500D02*X25600D01*
X28900Y549000D02*X30400D01*
X30900Y548500D01*
X30400Y548000D02*X30900Y548500D01*
X28900Y548000D02*X30400D01*
X28400Y547500D02*X28900Y548000D01*
X28400Y547500D02*X28900Y547000D01*
X30400D01*
X30900Y547500D01*
X28400Y548500D02*X28900Y549000D01*
X33600Y547000D02*X34100Y547500D01*
X32600Y547000D02*X33600D01*
X32100Y547500D02*X32600Y547000D01*
X32100Y547500D02*Y548500D01*
X32600Y549000D01*
X34100Y547000D02*Y548500D01*
X34600Y549000D01*
X32600D02*X33600D01*
X34100Y548500D01*
X35800Y547000D02*Y548500D01*
X36300Y549000D01*
X37800Y547000D02*Y550000D01*
X37300Y550500D02*X37800Y550000D01*
X36300Y550500D02*X37300D01*
X35800Y550000D02*X36300Y550500D01*
Y549000D02*X37300D01*
X37800Y548500D01*
X40800Y545000D02*Y549000D01*
Y545000D02*Y545500D01*
X43300Y548000D01*
Y545000D02*Y549000D01*
X44500Y545500D02*Y548500D01*
Y545500D02*X45000Y545000D01*
X46000D01*
X46500Y545500D01*
Y548500D01*
X46000Y549000D02*X46500Y548500D01*
X45000Y549000D02*X46000D01*
X44500Y548500D02*X45000Y549000D01*
G54D37*X22000Y581000D03*
G54D30*G36*
X26750Y536250D02*X37250D01*
Y525750D01*
X26750D01*
Y536250D01*
G37*
G36*
X37250Y507750D02*X42750D01*
Y502250D01*
X37250D01*
Y507750D01*
G37*
G54D38*X40000Y465000D03*
G54D37*X32000Y516000D03*
G54D30*G36*
X19250Y507750D02*X24750D01*
Y502250D01*
X19250D01*
Y507750D01*
G37*
G54D38*X22000Y465000D03*
G54D39*X40000Y453000D03*
X30000D03*
X20000D03*
Y423000D03*
X30000D03*
X40000D03*
G54D30*G36*
X209400Y557100D02*X216600D01*
Y549900D01*
X209400D01*
Y557100D01*
G37*
G54D40*X223000Y553500D03*
X233000D03*
G54D41*X260500Y560500D03*
X300500D03*
G54D42*X270500Y540500D03*
X280500D03*
G54D38*X202500Y541000D03*
G54D30*G36*
X234000Y529500D02*X228000D01*
Y535500D01*
X234000D01*
Y529500D01*
G37*
G36*
X275500Y486500D02*X281500D01*
Y480500D01*
X275500D01*
Y486500D01*
G37*
G54D39*X278500Y473500D03*
Y463500D03*
G54D30*G36*
X254750Y503750D02*X260250D01*
Y498250D01*
X254750D01*
Y503750D01*
G37*
G36*
X294500Y486500D02*X300500D01*
Y480500D01*
X294500D01*
Y486500D01*
G37*
G54D39*X297500Y473500D03*
Y463500D03*
G54D38*Y501000D03*
G54D39*Y453500D03*
X278500D03*
X297500Y443500D03*
X278500D03*
G54D38*X280500Y425500D03*
X199500Y524500D03*
G54D30*G36*
X203000Y481500D02*Y475500D01*
X197000D01*
Y481500D01*
X203000D01*
G37*
G54D39*X210000Y478500D03*
G54D30*G36*
X215000Y506500D02*Y500500D01*
X209000D01*
Y506500D01*
X215000D01*
G37*
G54D39*X222000Y503500D03*
G54D38*X200000Y510200D03*
G54D30*G36*
X199250Y437250D02*X204750D01*
Y431750D01*
X199250D01*
Y437250D01*
G37*
G54D39*X231000Y522500D03*
G54D38*X242000Y434500D03*
G54D30*G36*
X237750Y428250D02*X243250D01*
Y422750D01*
X237750D01*
Y428250D01*
G37*
G54D37*X42000Y581000D03*
X13500Y531000D03*
X50500D03*
Y516000D03*
G54D30*G36*
X47000Y456000D02*X53000D01*
Y450000D01*
X47000D01*
Y456000D01*
G37*
G54D39*X50000Y423000D03*
G54D30*G36*
X116500Y457500D02*X122500D01*
Y451500D01*
X116500D01*
Y457500D01*
G37*
G54D39*X119500Y444500D03*
Y434500D03*
Y424500D03*
X149500D03*
Y434500D03*
Y444500D03*
Y454500D03*
G54D38*X131500Y487500D03*
Y473500D03*
G54D30*G36*
X148000Y487500D02*Y479500D01*
X140000D01*
Y487500D01*
X148000D01*
G37*
G54D42*X144000Y473500D03*
G54D30*G36*
X99500Y431500D02*X93500D01*
Y437500D01*
X99500D01*
Y431500D01*
G37*
G54D38*X73000Y434000D03*
X66000Y429000D03*
G54D39*X96500Y424500D03*
G54D30*G36*
X75750Y466750D02*Y461250D01*
X70250D01*
Y466750D01*
X75750D01*
G37*
G36*
X68750Y471750D02*Y466250D01*
X63250D01*
Y471750D01*
X68750D01*
G37*
G36*
X94250Y484750D02*X88750D01*
Y490250D01*
X94250D01*
Y484750D01*
G37*
G36*
Y470750D02*X88750D01*
Y476250D01*
X94250D01*
Y470750D01*
G37*
G36*
X159750Y543750D02*X165250D01*
Y538250D01*
X159750D01*
Y543750D01*
G37*
G36*
X112000Y555000D02*X120000D01*
Y547000D01*
X112000D01*
Y555000D01*
G37*
G36*
X162250Y527250D02*Y521750D01*
X156750D01*
Y527250D01*
X162250D01*
G37*
G36*
X162750Y512950D02*Y507450D01*
X157250D01*
Y512950D01*
X162750D01*
G37*
G36*
X178500Y497500D02*X186500D01*
Y489500D01*
X178500D01*
Y497500D01*
G37*
G36*
X179500Y451500D02*X173500D01*
Y457500D01*
X179500D01*
Y451500D01*
G37*
G54D39*X176500Y444500D03*
G54D37*X13500Y516000D03*
G54D43*G54D44*G54D36*G54D44*G54D36*G54D45*G54D46*G54D47*G54D48*G54D36*G54D49*G54D36*G54D49*G54D36*G54D49*G54D36*G54D43*G54D44*G54D45*G54D36*G54D50*G54D36*G54D51*G54D36*G54D50*G54D36*G54D44*M02*
