G04 start of page 2 for group -1 layer_idx 268435461 *
G04 Title: (unknown), <virtual group> *
G04 Creator: pcb-rnd 2.2.0 *
G04 CreationDate: 2020-02-24 19:44:40 UTC *
G04 For:  *
G04 Format: Gerber/RS-274X *
G04 PCB-Dimensions: 316500 593500 *
G04 PCB-Coordinate-Origin: lower left *
%MOIN*%
%FSLAX25Y25*%
%LNLOGICAL_VIRTUAL_FAB_NONE*%
%ADD113C,0.0100*%
%ADD112C,0.0060*%
%ADD111C,0.0080*%
G54D111*X258900Y562100D02*X262100D01*
X258900D02*Y558900D01*
X262100D01*
Y562100D02*Y558900D01*
X257300Y563700D02*X263700D01*
X257300D02*Y557300D01*
X263700D01*
Y563700D02*Y557300D01*
X298900Y562100D02*X302100D01*
X298900D02*Y558900D01*
X302100D01*
Y562100D02*Y558900D01*
X297300Y563700D02*X303700D01*
X297300D02*Y557300D01*
X303700D01*
Y563700D02*Y557300D01*
X13400Y606350D02*X16600D01*
X13400D02*Y603150D01*
X16600D01*
Y606350D02*Y603150D01*
X11800Y607950D02*X18200D01*
X11800D02*Y601550D01*
X18200D01*
Y607950D02*Y601550D01*
G54D112*X135000Y607000D02*Y606250D01*
X136500Y604750D01*
X138000Y606250D01*
Y607000D02*Y606250D01*
X136500Y604750D02*Y601000D01*
X139800Y604000D02*X142050D01*
X139800Y601000D02*X142800D01*
X139800Y607000D02*Y601000D01*
Y607000D02*X142800D01*
X147600D02*X148350Y606250D01*
X145350Y607000D02*X147600D01*
X144600Y606250D02*X145350Y607000D01*
X144600Y606250D02*Y604750D01*
X145350Y604000D01*
X147600D01*
X148350Y603250D01*
Y601750D01*
X147600Y601000D02*X148350Y601750D01*
X145350Y601000D02*X147600D01*
X144600Y601750D02*X145350Y601000D01*
X98000Y606250D02*X98750Y607000D01*
X101000D01*
X101750Y606250D01*
Y604750D01*
X98000Y601000D02*X101750Y604750D01*
X98000Y601000D02*X101750D01*
X45000Y601750D02*X45750Y601000D01*
X45000Y606250D02*Y601750D01*
Y606250D02*X45750Y607000D01*
X47250D01*
X48000Y606250D01*
Y601750D01*
X47250Y601000D02*X48000Y601750D01*
X45750Y601000D02*X47250D01*
X45000Y602500D02*X48000Y605500D01*
X49800Y601000D02*X50550D01*
X52350Y601750D02*X53100Y601000D01*
X52350Y606250D02*Y601750D01*
Y606250D02*X53100Y607000D01*
X54600D01*
X55350Y606250D01*
Y601750D01*
X54600Y601000D02*X55350Y601750D01*
X53100Y601000D02*X54600D01*
X52350Y602500D02*X55350Y605500D01*
X57150Y601000D02*X60900Y604750D01*
Y607000D02*Y604750D01*
X57150Y607000D02*X60900D01*
X62700Y601000D02*X65700Y604000D01*
Y606250D02*Y604000D01*
X64950Y607000D02*X65700Y606250D01*
X63450Y607000D02*X64950D01*
X62700Y606250D02*X63450Y607000D01*
X62700Y606250D02*Y604750D01*
X63450Y604000D01*
X65700D01*
X31200Y531000D02*G75*G03X32800Y531000I800J0D01*G01*
G75*G03X31200Y531000I-800J0D01*G01*
X29600D02*G75*G03X34400Y531000I2400J0D01*G01*
G75*G03X29600Y531000I-2400J0D01*G01*
X31200Y516000D02*G75*G03X32800Y516000I800J0D01*G01*
G75*G03X31200Y516000I-800J0D01*G01*
X29600D02*G75*G03X34400Y516000I2400J0D01*G01*
G75*G03X29600Y516000I-2400J0D01*G01*
X12700Y531000D02*G75*G03X14300Y531000I800J0D01*G01*
G75*G03X12700Y531000I-800J0D01*G01*
X11100D02*G75*G03X15900Y531000I2400J0D01*G01*
G75*G03X11100Y531000I-2400J0D01*G01*
X49700D02*G75*G03X51300Y531000I800J0D01*G01*
G75*G03X49700Y531000I-800J0D01*G01*
X48100D02*G75*G03X52900Y531000I2400J0D01*G01*
G75*G03X48100Y531000I-2400J0D01*G01*
X49700Y516000D02*G75*G03X51300Y516000I800J0D01*G01*
G75*G03X49700Y516000I-800J0D01*G01*
X48100D02*G75*G03X52900Y516000I2400J0D01*G01*
G75*G03X48100Y516000I-2400J0D01*G01*
X12700D02*G75*G03X14300Y516000I800J0D01*G01*
G75*G03X12700Y516000I-800J0D01*G01*
X11100D02*G75*G03X15900Y516000I2400J0D01*G01*
G75*G03X11100Y516000I-2400J0D01*G01*
X14200Y619750D02*G75*G03X15800Y619750I800J0D01*G01*
G75*G03X14200Y619750I-800J0D01*G01*
X12600D02*G75*G03X17400Y619750I2400J0D01*G01*
G75*G03X12600Y619750I-2400J0D01*G01*
X135000Y622000D02*Y621250D01*
X136500Y619750D01*
X138000Y621250D01*
Y622000D02*Y621250D01*
X136500Y619750D02*Y616000D01*
X139800Y619000D02*X142050D01*
X139800Y616000D02*X142800D01*
X139800Y622000D02*Y616000D01*
Y622000D02*X142800D01*
X147600D02*X148350Y621250D01*
X145350Y622000D02*X147600D01*
X144600Y621250D02*X145350Y622000D01*
X144600Y621250D02*Y619750D01*
X145350Y619000D01*
X147600D01*
X148350Y618250D01*
Y616750D01*
X147600Y616000D02*X148350Y616750D01*
X145350Y616000D02*X147600D01*
X144600Y616750D02*X145350Y616000D01*
X100250Y622000D02*X101000Y621250D01*
X98750Y622000D02*X100250D01*
X98000Y621250D02*X98750Y622000D01*
X98000Y621250D02*Y616750D01*
X98750Y616000D01*
X100250Y619000D02*X101000Y618250D01*
X98000Y619000D02*X100250D01*
X98750Y616000D02*X100250D01*
X101000Y616750D01*
Y618250D02*Y616750D01*
X45000D02*X45750Y616000D01*
X45000Y621250D02*Y616750D01*
Y621250D02*X45750Y622000D01*
X47250D01*
X48000Y621250D01*
Y616750D01*
X47250Y616000D02*X48000Y616750D01*
X45750Y616000D02*X47250D01*
X45000Y617500D02*X48000Y620500D01*
X49800Y616000D02*X50550D01*
X52350Y616750D02*X53100Y616000D01*
X52350Y621250D02*Y616750D01*
Y621250D02*X53100Y622000D01*
X54600D01*
X55350Y621250D01*
Y616750D01*
X54600Y616000D02*X55350Y616750D01*
X53100Y616000D02*X54600D01*
X52350Y617500D02*X55350Y620500D01*
X57150Y616000D02*X60900Y619750D01*
Y622000D02*Y619750D01*
X57150Y622000D02*X60900D01*
X63450Y616000D02*X64950D01*
X64200Y622000D02*Y616000D01*
X62700Y620500D02*X64200Y622000D01*
X19600Y583400D02*X24400Y578600D01*
X19600D02*X24400Y583400D01*
X20400Y582600D02*X23600D01*
X20400D02*Y579400D01*
X23600D01*
Y582600D02*Y579400D01*
X39600Y583400D02*X44400Y578600D01*
X39600D02*X44400Y583400D01*
X40400Y582600D02*X43600D01*
X40400D02*Y579400D01*
X43600D01*
Y582600D02*Y579400D01*
X12600Y637150D02*X17400Y632350D01*
X12600D02*X17400Y637150D01*
X13400Y636350D02*X16600D01*
X13400D02*Y633150D01*
X16600D01*
Y636350D02*Y633150D01*
X135000Y637000D02*Y636250D01*
X136500Y634750D01*
X138000Y636250D01*
Y637000D02*Y636250D01*
X136500Y634750D02*Y631000D01*
X139800Y634000D02*X142050D01*
X139800Y631000D02*X142800D01*
X139800Y637000D02*Y631000D01*
Y637000D02*X142800D01*
X147600D02*X148350Y636250D01*
X145350Y637000D02*X147600D01*
X144600Y636250D02*X145350Y637000D01*
X144600Y636250D02*Y634750D01*
X145350Y634000D01*
X147600D01*
X148350Y633250D01*
Y631750D01*
X147600Y631000D02*X148350Y631750D01*
X145350Y631000D02*X147600D01*
X144600Y631750D02*X145350Y631000D01*
X98000Y636250D02*X98750Y637000D01*
X101000D01*
X101750Y636250D01*
Y634750D01*
X98000Y631000D02*X101750Y634750D01*
X98000Y631000D02*X101750D01*
X45000Y631750D02*X45750Y631000D01*
X45000Y636250D02*Y631750D01*
Y636250D02*X45750Y637000D01*
X47250D01*
X48000Y636250D01*
Y631750D01*
X47250Y631000D02*X48000Y631750D01*
X45750Y631000D02*X47250D01*
X45000Y632500D02*X48000Y635500D01*
X49800Y631000D02*X50550D01*
X52350Y631750D02*X53100Y631000D01*
X52350Y636250D02*Y631750D01*
Y636250D02*X53100Y637000D01*
X54600D01*
X55350Y636250D01*
Y631750D01*
X54600Y631000D02*X55350Y631750D01*
X53100Y631000D02*X54600D01*
X52350Y632500D02*X55350Y635500D01*
X59400Y637000D02*X60150Y636250D01*
X57900Y637000D02*X59400D01*
X57150Y636250D02*X57900Y637000D01*
X57150Y636250D02*Y631750D01*
X57900Y631000D01*
X59400Y634000D02*X60150Y633250D01*
X57150Y634000D02*X59400D01*
X57900Y631000D02*X59400D01*
X60150Y631750D01*
Y633250D02*Y631750D01*
X61950Y637000D02*X64950D01*
X61950D02*Y634000D01*
X62700Y634750D01*
X64200D01*
X64950Y634000D01*
Y631750D01*
X64200Y631000D02*X64950Y631750D01*
X62700Y631000D02*X64200D01*
X61950Y631750D02*X62700Y631000D01*
X116000Y554200D02*Y547800D01*
X112800Y551000D02*X119200D01*
X114400Y552600D02*X117600D01*
X114400D02*Y549400D01*
X117600D01*
Y552600D02*Y549400D01*
X15000Y652950D02*Y646550D01*
X11800Y649750D02*X18200D01*
X13400Y651350D02*X16600D01*
X13400D02*Y648150D01*
X16600D01*
Y651350D02*Y648150D01*
X135000Y652000D02*Y651250D01*
X136500Y649750D01*
X138000Y651250D01*
Y652000D02*Y651250D01*
X136500Y649750D02*Y646000D01*
X139800Y649000D02*X142050D01*
X139800Y646000D02*X142800D01*
X139800Y652000D02*Y646000D01*
Y652000D02*X142800D01*
X147600D02*X148350Y651250D01*
X145350Y652000D02*X147600D01*
X144600Y651250D02*X145350Y652000D01*
X144600Y651250D02*Y649750D01*
X145350Y649000D01*
X147600D01*
X148350Y648250D01*
Y646750D01*
X147600Y646000D02*X148350Y646750D01*
X145350Y646000D02*X147600D01*
X144600Y646750D02*X145350Y646000D01*
X98750D02*X100250D01*
X99500Y652000D02*Y646000D01*
X98000Y650500D02*X99500Y652000D01*
X45000Y646750D02*X45750Y646000D01*
X45000Y651250D02*Y646750D01*
Y651250D02*X45750Y652000D01*
X47250D01*
X48000Y651250D01*
Y646750D01*
X47250Y646000D02*X48000Y646750D01*
X45750Y646000D02*X47250D01*
X45000Y647500D02*X48000Y650500D01*
X49800Y646000D02*X50550D01*
X52350Y646750D02*X53100Y646000D01*
X52350Y651250D02*Y646750D01*
Y651250D02*X53100Y652000D01*
X54600D01*
X55350Y651250D01*
Y646750D01*
X54600Y646000D02*X55350Y646750D01*
X53100Y646000D02*X54600D01*
X52350Y647500D02*X55350Y650500D01*
X57150Y652000D02*X60150D01*
X57150D02*Y649000D01*
X57900Y649750D01*
X59400D01*
X60150Y649000D01*
Y646750D01*
X59400Y646000D02*X60150Y646750D01*
X57900Y646000D02*X59400D01*
X57150Y646750D02*X57900Y646000D01*
X61950Y646750D02*X62700Y646000D01*
X61950Y651250D02*Y646750D01*
Y651250D02*X62700Y652000D01*
X64200D01*
X64950Y651250D01*
Y646750D01*
X64200Y646000D02*X64950Y646750D01*
X62700Y646000D02*X64200D01*
X61950Y647500D02*X64950Y650500D01*
X213000Y553500D02*Y550300D01*
Y553500D02*X215773Y555100D01*
X213000Y553500D02*X210227Y555100D01*
X211400Y553500D02*G75*G03X214600Y553500I1600J0D01*G01*
G75*G03X211400Y553500I-1600J0D01*G01*
X223000D02*Y550300D01*
Y553500D02*X225773Y555100D01*
X223000Y553500D02*X220227Y555100D01*
X221400Y553500D02*G75*G03X224600Y553500I1600J0D01*G01*
G75*G03X221400Y553500I-1600J0D01*G01*
X233000D02*Y550300D01*
Y553500D02*X235773Y555100D01*
X233000Y553500D02*X230227Y555100D01*
X231400Y553500D02*G75*G03X234600Y553500I1600J0D01*G01*
G75*G03X231400Y553500I-1600J0D01*G01*
X15000Y664750D02*Y661550D01*
Y664750D02*X17773Y666350D01*
X15000Y664750D02*X12227Y666350D01*
X13400Y664750D02*G75*G03X16600Y664750I1600J0D01*G01*
G75*G03X13400Y664750I-1600J0D01*G01*
X135000Y667000D02*Y666250D01*
X136500Y664750D01*
X138000Y666250D01*
Y667000D02*Y666250D01*
X136500Y664750D02*Y661000D01*
X139800Y664000D02*X142050D01*
X139800Y661000D02*X142800D01*
X139800Y667000D02*Y661000D01*
Y667000D02*X142800D01*
X147600D02*X148350Y666250D01*
X145350Y667000D02*X147600D01*
X144600Y666250D02*X145350Y667000D01*
X144600Y666250D02*Y664750D01*
X145350Y664000D01*
X147600D01*
X148350Y663250D01*
Y661750D01*
X147600Y661000D02*X148350Y661750D01*
X145350Y661000D02*X147600D01*
X144600Y661750D02*X145350Y661000D01*
X98000Y666250D02*X98750Y667000D01*
X100250D01*
X101000Y666250D01*
Y661750D01*
X100250Y661000D02*X101000Y661750D01*
X98750Y661000D02*X100250D01*
X98000Y661750D02*X98750Y661000D01*
Y664000D02*X101000D01*
X45000Y661750D02*X45750Y661000D01*
X45000Y666250D02*Y661750D01*
Y666250D02*X45750Y667000D01*
X47250D01*
X48000Y666250D01*
Y661750D01*
X47250Y661000D02*X48000Y661750D01*
X45750Y661000D02*X47250D01*
X45000Y662500D02*X48000Y665500D01*
X49800Y661000D02*X50550D01*
X52350Y661750D02*X53100Y661000D01*
X52350Y666250D02*Y661750D01*
Y666250D02*X53100Y667000D01*
X54600D01*
X55350Y666250D01*
Y661750D01*
X54600Y661000D02*X55350Y661750D01*
X53100Y661000D02*X54600D01*
X52350Y662500D02*X55350Y665500D01*
X57150Y664000D02*X60150Y667000D01*
X57150Y664000D02*X60900D01*
X60150Y667000D02*Y661000D01*
X62700Y666250D02*X63450Y667000D01*
X65700D01*
X66450Y666250D01*
Y664750D01*
X62700Y661000D02*X66450Y664750D01*
X62700Y661000D02*X66450D01*
X142400Y485100D02*X145600D01*
X142400D02*Y481900D01*
X145600D01*
Y485100D02*Y481900D01*
X142400Y475100D02*X145600D01*
X142400D02*Y471900D01*
X145600D01*
Y475100D02*Y471900D01*
X180900Y495100D02*X184100D01*
X180900D02*Y491900D01*
X184100D01*
Y495100D02*Y491900D01*
X13400Y681350D02*X16600D01*
X13400D02*Y678150D01*
X16600D01*
Y681350D02*Y678150D01*
X135000Y682000D02*Y681250D01*
X136500Y679750D01*
X138000Y681250D01*
Y682000D02*Y681250D01*
X136500Y679750D02*Y676000D01*
X139800Y679000D02*X142050D01*
X139800Y676000D02*X142800D01*
X139800Y682000D02*Y676000D01*
Y682000D02*X142800D01*
X147600D02*X148350Y681250D01*
X145350Y682000D02*X147600D01*
X144600Y681250D02*X145350Y682000D01*
X144600Y681250D02*Y679750D01*
X145350Y679000D01*
X147600D01*
X148350Y678250D01*
Y676750D01*
X147600Y676000D02*X148350Y676750D01*
X145350Y676000D02*X147600D01*
X144600Y676750D02*X145350Y676000D01*
X98000Y681250D02*X98750Y682000D01*
X100250D01*
X101000Y681250D01*
Y676750D01*
X100250Y676000D02*X101000Y676750D01*
X98750Y676000D02*X100250D01*
X98000Y676750D02*X98750Y676000D01*
Y679000D02*X101000D01*
X45000Y676750D02*X45750Y676000D01*
X45000Y681250D02*Y676750D01*
Y681250D02*X45750Y682000D01*
X47250D01*
X48000Y681250D01*
Y676750D01*
X47250Y676000D02*X48000Y676750D01*
X45750Y676000D02*X47250D01*
X45000Y677500D02*X48000Y680500D01*
X49800Y676000D02*X50550D01*
X52350Y676750D02*X53100Y676000D01*
X52350Y681250D02*Y676750D01*
Y681250D02*X53100Y682000D01*
X54600D01*
X55350Y681250D01*
Y676750D01*
X54600Y676000D02*X55350Y676750D01*
X53100Y676000D02*X54600D01*
X52350Y677500D02*X55350Y680500D01*
X57150Y681250D02*X57900Y682000D01*
X59400D01*
X60150Y681250D01*
Y676750D01*
X59400Y676000D02*X60150Y676750D01*
X57900Y676000D02*X59400D01*
X57150Y676750D02*X57900Y676000D01*
Y679000D02*X60150D01*
X61950Y676000D02*X64950Y679000D01*
Y681250D02*Y679000D01*
X64200Y682000D02*X64950Y681250D01*
X62700Y682000D02*X64200D01*
X61950Y681250D02*X62700Y682000D01*
X61950Y681250D02*Y679750D01*
X62700Y679000D01*
X64950D01*
X277700Y483500D02*G75*G03X279300Y483500I800J0D01*G01*
G75*G03X277700Y483500I-800J0D01*G01*
Y473500D02*G75*G03X279300Y473500I800J0D01*G01*
G75*G03X277700Y473500I-800J0D01*G01*
Y463500D02*G75*G03X279300Y463500I800J0D01*G01*
G75*G03X277700Y463500I-800J0D01*G01*
X296700Y483500D02*G75*G03X298300Y483500I800J0D01*G01*
G75*G03X296700Y483500I-800J0D01*G01*
Y473500D02*G75*G03X298300Y473500I800J0D01*G01*
G75*G03X296700Y473500I-800J0D01*G01*
Y463500D02*G75*G03X298300Y463500I800J0D01*G01*
G75*G03X296700Y463500I-800J0D01*G01*
Y453500D02*G75*G03X298300Y453500I800J0D01*G01*
G75*G03X296700Y453500I-800J0D01*G01*
X277700D02*G75*G03X279300Y453500I800J0D01*G01*
G75*G03X277700Y453500I-800J0D01*G01*
X296700Y443500D02*G75*G03X298300Y443500I800J0D01*G01*
G75*G03X296700Y443500I-800J0D01*G01*
X277700D02*G75*G03X279300Y443500I800J0D01*G01*
G75*G03X277700Y443500I-800J0D01*G01*
X14200Y694750D02*G75*G03X15800Y694750I800J0D01*G01*
G75*G03X14200Y694750I-800J0D01*G01*
X135000Y697000D02*Y696250D01*
X136500Y694750D01*
X138000Y696250D01*
Y697000D02*Y696250D01*
X136500Y694750D02*Y691000D01*
X139800Y694000D02*X142050D01*
X139800Y691000D02*X142800D01*
X139800Y697000D02*Y691000D01*
Y697000D02*X142800D01*
X147600D02*X148350Y696250D01*
X145350Y697000D02*X147600D01*
X144600Y696250D02*X145350Y697000D01*
X144600Y696250D02*Y694750D01*
X145350Y694000D01*
X147600D01*
X148350Y693250D01*
Y691750D01*
X147600Y691000D02*X148350Y691750D01*
X145350Y691000D02*X147600D01*
X144600Y691750D02*X145350Y691000D01*
X98750D02*X100250D01*
X99500Y697000D02*Y691000D01*
X98000Y695500D02*X99500Y697000D01*
X102050Y691750D02*X102800Y691000D01*
X102050Y696250D02*Y691750D01*
Y696250D02*X102800Y697000D01*
X104300D01*
X105050Y696250D01*
Y691750D01*
X104300Y691000D02*X105050Y691750D01*
X102800Y691000D02*X104300D01*
X102050Y692500D02*X105050Y695500D01*
X45000Y691750D02*X45750Y691000D01*
X45000Y696250D02*Y691750D01*
Y696250D02*X45750Y697000D01*
X47250D01*
X48000Y696250D01*
Y691750D01*
X47250Y691000D02*X48000Y691750D01*
X45750Y691000D02*X47250D01*
X45000Y692500D02*X48000Y695500D01*
X49800Y691000D02*X50550D01*
X52350Y691750D02*X53100Y691000D01*
X52350Y696250D02*Y691750D01*
Y696250D02*X53100Y697000D01*
X54600D01*
X55350Y696250D01*
Y691750D01*
X54600Y691000D02*X55350Y691750D01*
X53100Y691000D02*X54600D01*
X52350Y692500D02*X55350Y695500D01*
X57150Y696250D02*X57900Y697000D01*
X59400D01*
X60150Y696250D01*
Y691750D01*
X59400Y691000D02*X60150Y691750D01*
X57900Y691000D02*X59400D01*
X57150Y691750D02*X57900Y691000D01*
Y694000D02*X60150D01*
X61950Y691750D02*X62700Y691000D01*
X61950Y693250D02*Y691750D01*
Y693250D02*X62700Y694000D01*
X64200D01*
X64950Y693250D01*
Y691750D01*
X64200Y691000D02*X64950Y691750D01*
X62700Y691000D02*X64200D01*
X61950Y694750D02*X62700Y694000D01*
X61950Y696250D02*Y694750D01*
Y696250D02*X62700Y697000D01*
X64200D01*
X64950Y696250D01*
Y694750D01*
X64200Y694000D02*X64950Y694750D01*
X269300Y541700D02*X271700Y539300D01*
X269300D02*X271700Y541700D01*
X279300D02*X281700Y539300D01*
X279300D02*X281700Y541700D01*
X13800Y710950D02*X16200Y708550D01*
X13800D02*X16200Y710950D01*
X135000Y712000D02*Y711250D01*
X136500Y709750D01*
X138000Y711250D01*
Y712000D02*Y711250D01*
X136500Y709750D02*Y706000D01*
X139800Y709000D02*X142050D01*
X139800Y706000D02*X142800D01*
X139800Y712000D02*Y706000D01*
Y712000D02*X142800D01*
X147600D02*X148350Y711250D01*
X145350Y712000D02*X147600D01*
X144600Y711250D02*X145350Y712000D01*
X144600Y711250D02*Y709750D01*
X145350Y709000D01*
X147600D01*
X148350Y708250D01*
Y706750D01*
X147600Y706000D02*X148350Y706750D01*
X145350Y706000D02*X147600D01*
X144600Y706750D02*X145350Y706000D01*
X98000Y711250D02*X98750Y712000D01*
X101000D01*
X101750Y711250D01*
Y709750D01*
X98000Y706000D02*X101750Y709750D01*
X98000Y706000D02*X101750D01*
X45000Y706750D02*X45750Y706000D01*
X45000Y711250D02*Y706750D01*
Y711250D02*X45750Y712000D01*
X47250D01*
X48000Y711250D01*
Y706750D01*
X47250Y706000D02*X48000Y706750D01*
X45750Y706000D02*X47250D01*
X45000Y707500D02*X48000Y710500D01*
X49800Y706000D02*X50550D01*
X52350Y706750D02*X53100Y706000D01*
X52350Y711250D02*Y706750D01*
Y711250D02*X53100Y712000D01*
X54600D01*
X55350Y711250D01*
Y706750D01*
X54600Y706000D02*X55350Y706750D01*
X53100Y706000D02*X54600D01*
X52350Y707500D02*X55350Y710500D01*
X57150Y711250D02*X57900Y712000D01*
X59400D01*
X60150Y711250D01*
Y706750D01*
X59400Y706000D02*X60150Y706750D01*
X57900Y706000D02*X59400D01*
X57150Y706750D02*X57900Y706000D01*
Y709000D02*X60150D01*
X61950Y711250D02*X62700Y712000D01*
X64950D01*
X65700Y711250D01*
Y709750D01*
X61950Y706000D02*X65700Y709750D01*
X61950Y706000D02*X65700D01*
X40000Y506600D02*Y503400D01*
X38400Y505000D02*X41600D01*
X40000Y466600D02*Y463400D01*
X38400Y465000D02*X41600D01*
X22000Y506600D02*Y503400D01*
X20400Y505000D02*X23600D01*
X22000Y466600D02*Y463400D01*
X20400Y465000D02*X23600D01*
X202500Y542600D02*Y539400D01*
X200900Y541000D02*X204100D01*
X231000Y534100D02*Y530900D01*
X229400Y532500D02*X232600D01*
X257500Y502600D02*Y499400D01*
X255900Y501000D02*X259100D01*
X297500Y502600D02*Y499400D01*
X295900Y501000D02*X299100D01*
X280500Y427100D02*Y423900D01*
X278900Y425500D02*X282100D01*
X199500Y526100D02*Y522900D01*
X197900Y524500D02*X201100D01*
X200000Y480100D02*Y476900D01*
X198400Y478500D02*X201600D01*
X210000Y480100D02*Y476900D01*
X208400Y478500D02*X211600D01*
X212000Y505100D02*Y501900D01*
X210400Y503500D02*X213600D01*
X222000Y505100D02*Y501900D01*
X220400Y503500D02*X223600D01*
X200000Y511800D02*Y508600D01*
X198400Y510200D02*X201600D01*
X202000Y436100D02*Y432900D01*
X200400Y434500D02*X203600D01*
X231000Y524100D02*Y520900D01*
X229400Y522500D02*X232600D01*
X242000Y436100D02*Y432900D01*
X240400Y434500D02*X243600D01*
X240500Y427100D02*Y423900D01*
X238900Y425500D02*X242100D01*
X131500Y489100D02*Y485900D01*
X129900Y487500D02*X133100D01*
X131500Y475100D02*Y471900D01*
X129900Y473500D02*X133100D01*
X96500Y436100D02*Y432900D01*
X94900Y434500D02*X98100D01*
X73000Y435600D02*Y432400D01*
X71400Y434000D02*X74600D01*
X66000Y430600D02*Y427400D01*
X64400Y429000D02*X67600D01*
X96500Y426100D02*Y422900D01*
X94900Y424500D02*X98100D01*
X73000Y465600D02*Y462400D01*
X71400Y464000D02*X74600D01*
X66000Y470600D02*Y467400D01*
X64400Y469000D02*X67600D01*
X91500Y489100D02*Y485900D01*
X89900Y487500D02*X93100D01*
X91500Y475100D02*Y471900D01*
X89900Y473500D02*X93100D01*
X162500Y542600D02*Y539400D01*
X160900Y541000D02*X164100D01*
X159500Y526100D02*Y522900D01*
X157900Y524500D02*X161100D01*
X160000Y511800D02*Y508600D01*
X158400Y510200D02*X161600D01*
X176500Y456100D02*Y452900D01*
X174900Y454500D02*X178100D01*
X176500Y446100D02*Y442900D01*
X174900Y444500D02*X178100D01*
X15000Y726350D02*Y723150D01*
X13400Y724750D02*X16600D01*
X135000Y727000D02*Y726250D01*
X136500Y724750D01*
X138000Y726250D01*
Y727000D02*Y726250D01*
X136500Y724750D02*Y721000D01*
X139800Y724000D02*X142050D01*
X139800Y721000D02*X142800D01*
X139800Y727000D02*Y721000D01*
Y727000D02*X142800D01*
X147600D02*X148350Y726250D01*
X145350Y727000D02*X147600D01*
X144600Y726250D02*X145350Y727000D01*
X144600Y726250D02*Y724750D01*
X145350Y724000D01*
X147600D01*
X148350Y723250D01*
Y721750D01*
X147600Y721000D02*X148350Y721750D01*
X145350Y721000D02*X147600D01*
X144600Y721750D02*X145350Y721000D01*
X98000Y726250D02*X98750Y727000D01*
X100250D01*
X101000Y726250D01*
Y721750D01*
X100250Y721000D02*X101000Y721750D01*
X98750Y721000D02*X100250D01*
X98000Y721750D02*X98750Y721000D01*
Y724000D02*X101000D01*
X102800D02*X105800Y727000D01*
X102800Y724000D02*X106550D01*
X105800Y727000D02*Y721000D01*
X45000Y721750D02*X45750Y721000D01*
X45000Y726250D02*Y721750D01*
Y726250D02*X45750Y727000D01*
X47250D01*
X48000Y726250D01*
Y721750D01*
X47250Y721000D02*X48000Y721750D01*
X45750Y721000D02*X47250D01*
X45000Y722500D02*X48000Y725500D01*
X49800Y721000D02*X50550D01*
X52350Y721750D02*X53100Y721000D01*
X52350Y726250D02*Y721750D01*
Y726250D02*X53100Y727000D01*
X54600D01*
X55350Y726250D01*
Y721750D01*
X54600Y721000D02*X55350Y721750D01*
X53100Y721000D02*X54600D01*
X52350Y722500D02*X55350Y725500D01*
X57150Y726250D02*X57900Y727000D01*
X59400D01*
X60150Y726250D01*
Y721750D01*
X59400Y721000D02*X60150Y721750D01*
X57900Y721000D02*X59400D01*
X57150Y721750D02*X57900Y721000D01*
Y724000D02*X60150D01*
X61950Y721750D02*X62700Y721000D01*
X61950Y726250D02*Y721750D01*
Y726250D02*X62700Y727000D01*
X64200D01*
X64950Y726250D01*
Y721750D01*
X64200Y721000D02*X64950Y721750D01*
X62700Y721000D02*X64200D01*
X61950Y722500D02*X64950Y725500D01*
X40000Y453000D02*Y451400D01*
Y453000D02*X41387Y453800D01*
X40000Y453000D02*X38613Y453800D01*
X30000Y453000D02*Y451400D01*
Y453000D02*X31387Y453800D01*
X30000Y453000D02*X28613Y453800D01*
X20000Y453000D02*Y451400D01*
Y453000D02*X21387Y453800D01*
X20000Y453000D02*X18613Y453800D01*
X20000Y423000D02*Y421400D01*
Y423000D02*X21387Y423800D01*
X20000Y423000D02*X18613Y423800D01*
X30000Y423000D02*Y421400D01*
Y423000D02*X31387Y423800D01*
X30000Y423000D02*X28613Y423800D01*
X40000Y423000D02*Y421400D01*
Y423000D02*X41387Y423800D01*
X40000Y423000D02*X38613Y423800D01*
X50000Y453000D02*Y451400D01*
Y453000D02*X51387Y453800D01*
X50000Y453000D02*X48613Y453800D01*
X50000Y423000D02*Y421400D01*
Y423000D02*X51387Y423800D01*
X50000Y423000D02*X48613Y423800D01*
X119500Y454500D02*Y452900D01*
Y454500D02*X120887Y455300D01*
X119500Y454500D02*X118113Y455300D01*
X119500Y444500D02*Y442900D01*
Y444500D02*X120887Y445300D01*
X119500Y444500D02*X118113Y445300D01*
X119500Y434500D02*Y432900D01*
Y434500D02*X120887Y435300D01*
X119500Y434500D02*X118113Y435300D01*
X119500Y424500D02*Y422900D01*
Y424500D02*X120887Y425300D01*
X119500Y424500D02*X118113Y425300D01*
X149500Y424500D02*Y422900D01*
Y424500D02*X150887Y425300D01*
X149500Y424500D02*X148113Y425300D01*
X149500Y434500D02*Y432900D01*
Y434500D02*X150887Y435300D01*
X149500Y434500D02*X148113Y435300D01*
X149500Y444500D02*Y442900D01*
Y444500D02*X150887Y445300D01*
X149500Y444500D02*X148113Y445300D01*
X149500Y454500D02*Y452900D01*
Y454500D02*X150887Y455300D01*
X149500Y454500D02*X148113Y455300D01*
X15000Y739750D02*Y738150D01*
Y739750D02*X16387Y740550D01*
X15000Y739750D02*X13613Y740550D01*
X135000Y742000D02*Y741250D01*
X136500Y739750D01*
X138000Y741250D01*
Y742000D02*Y741250D01*
X136500Y739750D02*Y736000D01*
X139800Y739000D02*X142050D01*
X139800Y736000D02*X142800D01*
X139800Y742000D02*Y736000D01*
Y742000D02*X142800D01*
X147600D02*X148350Y741250D01*
X145350Y742000D02*X147600D01*
X144600Y741250D02*X145350Y742000D01*
X144600Y741250D02*Y739750D01*
X145350Y739000D01*
X147600D01*
X148350Y738250D01*
Y736750D01*
X147600Y736000D02*X148350Y736750D01*
X145350Y736000D02*X147600D01*
X144600Y736750D02*X145350Y736000D01*
X98750D02*X100250D01*
X99500Y742000D02*Y736000D01*
X98000Y740500D02*X99500Y742000D01*
X104300D02*X105050Y741250D01*
X102800Y742000D02*X104300D01*
X102050Y741250D02*X102800Y742000D01*
X102050Y741250D02*Y736750D01*
X102800Y736000D01*
X104300Y739000D02*X105050Y738250D01*
X102050Y739000D02*X104300D01*
X102800Y736000D02*X104300D01*
X105050Y736750D01*
Y738250D02*Y736750D01*
X45000D02*X45750Y736000D01*
X45000Y741250D02*Y736750D01*
Y741250D02*X45750Y742000D01*
X47250D01*
X48000Y741250D01*
Y736750D01*
X47250Y736000D02*X48000Y736750D01*
X45750Y736000D02*X47250D01*
X45000Y737500D02*X48000Y740500D01*
X49800Y736000D02*X50550D01*
X52350Y736750D02*X53100Y736000D01*
X52350Y741250D02*Y736750D01*
Y741250D02*X53100Y742000D01*
X54600D01*
X55350Y741250D01*
Y736750D01*
X54600Y736000D02*X55350Y736750D01*
X53100Y736000D02*X54600D01*
X52350Y737500D02*X55350Y740500D01*
X57150Y741250D02*X57900Y742000D01*
X60150D01*
X60900Y741250D01*
Y739750D01*
X57150Y736000D02*X60900Y739750D01*
X57150Y736000D02*X60900D01*
X62700Y736750D02*X63450Y736000D01*
X62700Y738250D02*Y736750D01*
Y738250D02*X63450Y739000D01*
X64950D01*
X65700Y738250D01*
Y736750D01*
X64950Y736000D02*X65700Y736750D01*
X63450Y736000D02*X64950D01*
X62700Y739750D02*X63450Y739000D01*
X62700Y741250D02*Y739750D01*
Y741250D02*X63450Y742000D01*
X64950D01*
X65700Y741250D01*
Y739750D01*
X64950Y739000D02*X65700Y739750D01*
X3000Y757000D02*X3750Y756250D01*
X750Y757000D02*X3000D01*
X0Y756250D02*X750Y757000D01*
X0Y756250D02*Y754750D01*
X750Y754000D01*
X3000D01*
X3750Y753250D01*
Y751750D01*
X3000Y751000D02*X3750Y751750D01*
X750Y751000D02*X3000D01*
X0Y751750D02*X750Y751000D01*
X5550Y754000D02*Y751750D01*
X6300Y751000D01*
X8550Y754000D02*Y749500D01*
X7800Y748750D02*X8550Y749500D01*
X6300Y748750D02*X7800D01*
X5550Y749500D02*X6300Y748750D01*
Y751000D02*X7800D01*
X8550Y751750D01*
X11100Y753250D02*Y751000D01*
Y753250D02*X11850Y754000D01*
X12600D01*
X13350Y753250D01*
Y751000D01*
Y753250D02*X14100Y754000D01*
X14850D01*
X15600Y753250D01*
Y751000D01*
X10350Y754000D02*X11100Y753250D01*
X17400Y757000D02*Y751000D01*
Y751750D02*X18150Y751000D01*
X19650D01*
X20400Y751750D01*
Y753250D02*Y751750D01*
X19650Y754000D02*X20400Y753250D01*
X18150Y754000D02*X19650D01*
X17400Y753250D02*X18150Y754000D01*
X22200Y753250D02*Y751750D01*
Y753250D02*X22950Y754000D01*
X24450D01*
X25200Y753250D01*
Y751750D01*
X24450Y751000D02*X25200Y751750D01*
X22950Y751000D02*X24450D01*
X22200Y751750D02*X22950Y751000D01*
X27000Y757000D02*Y751750D01*
X27750Y751000D01*
X0Y747750D02*X29250D01*
X41750Y757000D02*Y751000D01*
X44000Y757000D02*X44750Y756250D01*
Y751750D01*
X44000Y751000D02*X44750Y751750D01*
X41000Y751000D02*X44000D01*
X41000Y757000D02*X44000D01*
X46550Y755500D02*Y754750D01*
Y753250D02*Y751000D01*
X50300Y754000D02*X51050Y753250D01*
X48800Y754000D02*X50300D01*
X48050Y753250D02*X48800Y754000D01*
X48050Y753250D02*Y751750D01*
X48800Y751000D01*
X51050Y754000D02*Y751750D01*
X51800Y751000D01*
X48800D02*X50300D01*
X51050Y751750D01*
X54350Y753250D02*Y751000D01*
Y753250D02*X55100Y754000D01*
X55850D01*
X56600Y753250D01*
Y751000D01*
Y753250D02*X57350Y754000D01*
X58100D01*
X58850Y753250D01*
Y751000D01*
X53600Y754000D02*X54350Y753250D01*
X60650Y751000D02*X61400D01*
X65900Y751750D02*X66650Y751000D01*
X65900Y756250D02*X66650Y757000D01*
X65900Y756250D02*Y751750D01*
X68450Y757000D02*X69950D01*
X69200D02*Y751000D01*
X68450D02*X69950D01*
X72500Y753250D02*Y751000D01*
Y753250D02*X73250Y754000D01*
X74000D01*
X74750Y753250D01*
Y751000D01*
X71750Y754000D02*X72500Y753250D01*
X77300Y754000D02*X79550D01*
X76550Y753250D02*X77300Y754000D01*
X76550Y753250D02*Y751750D01*
X77300Y751000D01*
X79550D01*
X81350Y757000D02*Y751000D01*
Y753250D02*X82100Y754000D01*
X83600D01*
X84350Y753250D01*
Y751000D01*
X86150Y757000D02*X86900Y756250D01*
Y751750D01*
X86150Y751000D02*X86900Y751750D01*
X41000Y747750D02*X88700D01*
X95750Y751000D02*X98000D01*
X95000Y751750D02*X95750Y751000D01*
X95000Y756250D02*Y751750D01*
Y756250D02*X95750Y757000D01*
X98000D01*
X99800Y753250D02*Y751750D01*
Y753250D02*X100550Y754000D01*
X102050D01*
X102800Y753250D01*
Y751750D01*
X102050Y751000D02*X102800Y751750D01*
X100550Y751000D02*X102050D01*
X99800Y751750D02*X100550Y751000D01*
X104600Y754000D02*Y751750D01*
X105350Y751000D01*
X106850D01*
X107600Y751750D01*
Y754000D02*Y751750D01*
X110150Y753250D02*Y751000D01*
Y753250D02*X110900Y754000D01*
X111650D01*
X112400Y753250D01*
Y751000D01*
X109400Y754000D02*X110150Y753250D01*
X114950Y757000D02*Y751750D01*
X115700Y751000D01*
X114200Y754750D02*X115700D01*
X95000Y747750D02*X117200D01*
X130750Y757000D02*Y751000D01*
X130000Y757000D02*X133000D01*
X133750Y756250D01*
Y754750D01*
X133000Y754000D02*X133750Y754750D01*
X130750Y754000D02*X133000D01*
X135550Y757000D02*Y751750D01*
X136300Y751000D01*
X140050Y754000D02*X140800Y753250D01*
X138550Y754000D02*X140050D01*
X137800Y753250D02*X138550Y754000D01*
X137800Y753250D02*Y751750D01*
X138550Y751000D01*
X140800Y754000D02*Y751750D01*
X141550Y751000D01*
X138550D02*X140050D01*
X140800Y751750D01*
X144100Y757000D02*Y751750D01*
X144850Y751000D01*
X143350Y754750D02*X144850D01*
X147100Y751000D02*X149350D01*
X146350Y751750D02*X147100Y751000D01*
X146350Y753250D02*Y751750D01*
Y753250D02*X147100Y754000D01*
X148600D01*
X149350Y753250D01*
X146350Y752500D02*X149350D01*
Y753250D01*
X154150Y757000D02*Y751000D01*
X153400D02*X154150Y751750D01*
X151900Y751000D02*X153400D01*
X151150Y751750D02*X151900Y751000D01*
X151150Y753250D02*Y751750D01*
Y753250D02*X151900Y754000D01*
X153400D01*
X154150Y753250D01*
X157450Y754000D02*Y753250D01*
Y751750D02*Y751000D01*
X155950Y756250D02*Y755500D01*
Y756250D02*X156700Y757000D01*
X158200D01*
X158950Y756250D01*
Y755500D01*
X157450Y754000D02*X158950Y755500D01*
X130000Y747750D02*X160750D01*
X0Y772000D02*X3000D01*
X1500D02*Y766000D01*
X4800Y772000D02*Y766000D01*
Y768250D02*X5550Y769000D01*
X7050D01*
X7800Y768250D01*
Y766000D01*
X10350D02*X12600D01*
X9600Y766750D02*X10350Y766000D01*
X9600Y768250D02*Y766750D01*
Y768250D02*X10350Y769000D01*
X11850D01*
X12600Y768250D01*
X9600Y767500D02*X12600D01*
Y768250D01*
X15150D02*Y766000D01*
Y768250D02*X15900Y769000D01*
X17400D01*
X14400D02*X15150Y768250D01*
X19950Y766000D02*X22200D01*
X19200Y766750D02*X19950Y766000D01*
X19200Y768250D02*Y766750D01*
Y768250D02*X19950Y769000D01*
X21450D01*
X22200Y768250D01*
X19200Y767500D02*X22200D01*
Y768250D01*
X28950Y769000D02*X29700Y768250D01*
X27450Y769000D02*X28950D01*
X26700Y768250D02*X27450Y769000D01*
X26700Y768250D02*Y766750D01*
X27450Y766000D01*
X29700Y769000D02*Y766750D01*
X30450Y766000D01*
X27450D02*X28950D01*
X29700Y766750D01*
X33000Y768250D02*Y766000D01*
Y768250D02*X33750Y769000D01*
X35250D01*
X32250D02*X33000Y768250D01*
X37800Y766000D02*X40050D01*
X37050Y766750D02*X37800Y766000D01*
X37050Y768250D02*Y766750D01*
Y768250D02*X37800Y769000D01*
X39300D01*
X40050Y768250D01*
X37050Y767500D02*X40050D01*
Y768250D01*
X45300Y766000D02*X46800D01*
X46050Y772000D02*Y766000D01*
X44550Y770500D02*X46050Y772000D01*
X48600Y766750D02*X49350Y766000D01*
X48600Y771250D02*Y766750D01*
Y771250D02*X49350Y772000D01*
X50850D01*
X51600Y771250D01*
Y766750D01*
X50850Y766000D02*X51600Y766750D01*
X49350Y766000D02*X50850D01*
X48600Y767500D02*X51600Y770500D01*
X59100Y772000D02*Y766000D01*
X58350D02*X59100Y766750D01*
X56850Y766000D02*X58350D01*
X56100Y766750D02*X56850Y766000D01*
X56100Y768250D02*Y766750D01*
Y768250D02*X56850Y769000D01*
X58350D01*
X59100Y768250D01*
X60900Y770500D02*Y769750D01*
Y768250D02*Y766000D01*
X63150Y771250D02*Y766000D01*
Y771250D02*X63900Y772000D01*
X64650D01*
X62400Y769000D02*X63900D01*
X66900Y771250D02*Y766000D01*
Y771250D02*X67650Y772000D01*
X68400D01*
X66150Y769000D02*X67650D01*
X70650Y766000D02*X72900D01*
X69900Y766750D02*X70650Y766000D01*
X69900Y768250D02*Y766750D01*
Y768250D02*X70650Y769000D01*
X72150D01*
X72900Y768250D01*
X69900Y767500D02*X72900D01*
Y768250D01*
X75450D02*Y766000D01*
Y768250D02*X76200Y769000D01*
X77700D01*
X74700D02*X75450Y768250D01*
X80250Y766000D02*X82500D01*
X79500Y766750D02*X80250Y766000D01*
X79500Y768250D02*Y766750D01*
Y768250D02*X80250Y769000D01*
X81750D01*
X82500Y768250D01*
X79500Y767500D02*X82500D01*
Y768250D01*
X85050D02*Y766000D01*
Y768250D02*X85800Y769000D01*
X86550D01*
X87300Y768250D01*
Y766000D01*
X84300Y769000D02*X85050Y768250D01*
X89850Y772000D02*Y766750D01*
X90600Y766000D01*
X89100Y769750D02*X90600D01*
X97800Y772000D02*Y766000D01*
X97050D02*X97800Y766750D01*
X95550Y766000D02*X97050D01*
X94800Y766750D02*X95550Y766000D01*
X94800Y768250D02*Y766750D01*
Y768250D02*X95550Y769000D01*
X97050D01*
X97800Y768250D01*
X100350D02*Y766000D01*
Y768250D02*X101100Y769000D01*
X102600D01*
X99600D02*X100350Y768250D01*
X104400Y770500D02*Y769750D01*
Y768250D02*Y766000D01*
X105900Y772000D02*Y766750D01*
X106650Y766000D01*
X108150Y772000D02*Y766750D01*
X108900Y766000D01*
X113850D02*X116100D01*
X116850Y766750D01*
X116100Y767500D02*X116850Y766750D01*
X113850Y767500D02*X116100D01*
X113100Y768250D02*X113850Y767500D01*
X113100Y768250D02*X113850Y769000D01*
X116100D01*
X116850Y768250D01*
X113100Y766750D02*X113850Y766000D01*
X118650Y770500D02*Y769750D01*
Y768250D02*Y766000D01*
X120150Y769000D02*X123150D01*
X120150Y766000D02*X123150Y769000D01*
X120150Y766000D02*X123150D01*
X125700D02*X127950D01*
X124950Y766750D02*X125700Y766000D01*
X124950Y768250D02*Y766750D01*
Y768250D02*X125700Y769000D01*
X127200D01*
X127950Y768250D01*
X124950Y767500D02*X127950D01*
Y768250D01*
X130500Y766000D02*X132750D01*
X133500Y766750D01*
X132750Y767500D02*X133500Y766750D01*
X130500Y767500D02*X132750D01*
X129750Y768250D02*X130500Y767500D01*
X129750Y768250D02*X130500Y769000D01*
X132750D01*
X133500Y768250D01*
X129750Y766750D02*X130500Y766000D01*
X138000Y769000D02*Y766750D01*
X138750Y766000D01*
X140250D01*
X141000Y766750D01*
Y769000D02*Y766750D01*
X143550Y766000D02*X145800D01*
X146550Y766750D01*
X145800Y767500D02*X146550Y766750D01*
X143550Y767500D02*X145800D01*
X142800Y768250D02*X143550Y767500D01*
X142800Y768250D02*X143550Y769000D01*
X145800D01*
X146550Y768250D01*
X142800Y766750D02*X143550Y766000D01*
X149100D02*X151350D01*
X148350Y766750D02*X149100Y766000D01*
X148350Y768250D02*Y766750D01*
Y768250D02*X149100Y769000D01*
X150600D01*
X151350Y768250D01*
X148350Y767500D02*X151350D01*
Y768250D01*
X156150Y772000D02*Y766000D01*
X155400D02*X156150Y766750D01*
X153900Y766000D02*X155400D01*
X153150Y766750D02*X153900Y766000D01*
X153150Y768250D02*Y766750D01*
Y768250D02*X153900Y769000D01*
X155400D01*
X156150Y768250D01*
X160650Y770500D02*Y769750D01*
Y768250D02*Y766000D01*
X162900Y768250D02*Y766000D01*
Y768250D02*X163650Y769000D01*
X164400D01*
X165150Y768250D01*
Y766000D01*
X162150Y769000D02*X162900Y768250D01*
X170400Y772000D02*Y766750D01*
X171150Y766000D01*
X169650Y769750D02*X171150D01*
X172650Y772000D02*Y766000D01*
Y768250D02*X173400Y769000D01*
X174900D01*
X175650Y768250D01*
Y766000D01*
X177450Y770500D02*Y769750D01*
Y768250D02*Y766000D01*
X179700D02*X181950D01*
X182700Y766750D01*
X181950Y767500D02*X182700Y766750D01*
X179700Y767500D02*X181950D01*
X178950Y768250D02*X179700Y767500D01*
X178950Y768250D02*X179700Y769000D01*
X181950D01*
X182700Y768250D01*
X178950Y766750D02*X179700Y766000D01*
X187200Y772000D02*Y766750D01*
X187950Y766000D01*
X191700Y769000D02*X192450Y768250D01*
X190200Y769000D02*X191700D01*
X189450Y768250D02*X190200Y769000D01*
X189450Y768250D02*Y766750D01*
X190200Y766000D01*
X192450Y769000D02*Y766750D01*
X193200Y766000D01*
X190200D02*X191700D01*
X192450Y766750D01*
X195000Y769000D02*Y766750D01*
X195750Y766000D01*
X198000Y769000D02*Y764500D01*
X197250Y763750D02*X198000Y764500D01*
X195750Y763750D02*X197250D01*
X195000Y764500D02*X195750Y763750D01*
Y766000D02*X197250D01*
X198000Y766750D01*
X199800Y768250D02*Y766750D01*
Y768250D02*X200550Y769000D01*
X202050D01*
X202800Y768250D01*
Y766750D01*
X202050Y766000D02*X202800Y766750D01*
X200550Y766000D02*X202050D01*
X199800Y766750D02*X200550Y766000D01*
X204600Y769000D02*Y766750D01*
X205350Y766000D01*
X206850D01*
X207600Y766750D01*
Y769000D02*Y766750D01*
X210150Y772000D02*Y766750D01*
X210900Y766000D01*
X209400Y769750D02*X210900D01*
X212400Y764500D02*X213900Y766000D01*
X218400D02*X222150Y769750D01*
Y772000D02*Y769750D01*
X218400Y772000D02*X222150D01*
X223950Y766000D02*X226950Y769000D01*
Y771250D02*Y769000D01*
X226200Y772000D02*X226950Y771250D01*
X224700Y772000D02*X226200D01*
X223950Y771250D02*X224700Y772000D01*
X223950Y771250D02*Y769750D01*
X224700Y769000D01*
X226950D01*
X231450Y772000D02*Y766000D01*
Y768250D02*X232200Y769000D01*
X233700D01*
X234450Y768250D01*
Y766000D01*
X236250Y768250D02*Y766750D01*
Y768250D02*X237000Y769000D01*
X238500D01*
X239250Y768250D01*
Y766750D01*
X238500Y766000D02*X239250Y766750D01*
X237000Y766000D02*X238500D01*
X236250Y766750D02*X237000Y766000D01*
X241050Y772000D02*Y766750D01*
X241800Y766000D01*
X244050D02*X246300D01*
X243300Y766750D02*X244050Y766000D01*
X243300Y768250D02*Y766750D01*
Y768250D02*X244050Y769000D01*
X245550D01*
X246300Y768250D01*
X243300Y767500D02*X246300D01*
Y768250D01*
X248850Y766000D02*X251100D01*
X251850Y766750D01*
X251100Y767500D02*X251850Y766750D01*
X248850Y767500D02*X251100D01*
X248100Y768250D02*X248850Y767500D01*
X248100Y768250D02*X248850Y769000D01*
X251100D01*
X251850Y768250D01*
X248100Y766750D02*X248850Y766000D01*
X257100Y772000D02*Y766750D01*
X257850Y766000D01*
X256350Y769750D02*X257850D01*
X259350Y768250D02*Y766750D01*
Y768250D02*X260100Y769000D01*
X261600D01*
X262350Y768250D01*
Y766750D01*
X261600Y766000D02*X262350Y766750D01*
X260100Y766000D02*X261600D01*
X259350Y766750D02*X260100Y766000D01*
X264900Y772000D02*Y766750D01*
X265650Y766000D01*
X264150Y769750D02*X265650D01*
X269400Y769000D02*X270150Y768250D01*
X267900Y769000D02*X269400D01*
X267150Y768250D02*X267900Y769000D01*
X267150Y768250D02*Y766750D01*
X267900Y766000D01*
X270150Y769000D02*Y766750D01*
X270900Y766000D01*
X267900D02*X269400D01*
X270150Y766750D01*
X272700Y772000D02*Y766750D01*
X273450Y766000D01*
G54D113*X312500Y588500D02*Y413500D01*
X304000Y405000D02*X11500D01*
X3000Y588500D02*Y413500D01*
X57500Y588500D02*X72500Y573500D01*
X312500Y588500D02*X175000D01*
X3000D02*X57500D01*
X81500Y564500D01*
X151000D02*X81500D01*
X151000D02*X175000Y588500D01*
X312500Y413500D02*G75*G02X304000Y405000I-8500J0D01*G01*
X11500D02*G75*G02X3000Y413500I0J8500D01*G01*
G54D112*X71925Y-9500D02*X74925D01*
X75675Y-8750D01*
Y-7250D02*Y-8750D01*
X74925Y-6500D02*X75675Y-7250D01*
X72675Y-6500D02*X74925D01*
X72675Y-3500D02*Y-9500D01*
X71925Y-3500D02*X74925D01*
X75675Y-4250D01*
Y-5750D01*
X74925Y-6500D02*X75675Y-5750D01*
X77475Y-7250D02*Y-8750D01*
Y-7250D02*X78225Y-6500D01*
X79725D01*
X80475Y-7250D01*
Y-8750D01*
X79725Y-9500D02*X80475Y-8750D01*
X78225Y-9500D02*X79725D01*
X77475Y-8750D02*X78225Y-9500D01*
X84525Y-6500D02*X85275Y-7250D01*
X83025Y-6500D02*X84525D01*
X82275Y-7250D02*X83025Y-6500D01*
X82275Y-7250D02*Y-8750D01*
X83025Y-9500D01*
X85275Y-6500D02*Y-8750D01*
X86025Y-9500D01*
X83025D02*X84525D01*
X85275Y-8750D01*
X88575Y-7250D02*Y-9500D01*
Y-7250D02*X89325Y-6500D01*
X90825D01*
X87825D02*X88575Y-7250D01*
X95625Y-3500D02*Y-9500D01*
X94875D02*X95625Y-8750D01*
X93375Y-9500D02*X94875D01*
X92625Y-8750D02*X93375Y-9500D01*
X92625Y-7250D02*Y-8750D01*
Y-7250D02*X93375Y-6500D01*
X94875D01*
X95625Y-7250D01*
X100125D02*Y-8750D01*
Y-7250D02*X100875Y-6500D01*
X102375D01*
X103125Y-7250D01*
Y-8750D01*
X102375Y-9500D02*X103125Y-8750D01*
X100875Y-9500D02*X102375D01*
X100125Y-8750D02*X100875Y-9500D01*
X104925Y-6500D02*Y-8750D01*
X105675Y-9500D01*
X107175D01*
X107925Y-8750D01*
Y-6500D02*Y-8750D01*
X110475Y-3500D02*Y-8750D01*
X111225Y-9500D01*
X109725Y-5750D02*X111225D01*
X112725Y-3500D02*Y-8750D01*
X113475Y-9500D01*
X114975Y-5000D02*Y-5750D01*
Y-7250D02*Y-9500D01*
X117225Y-7250D02*Y-9500D01*
Y-7250D02*X117975Y-6500D01*
X118725D01*
X119475Y-7250D01*
Y-9500D01*
X116475Y-6500D02*X117225Y-7250D01*
X122025Y-9500D02*X124275D01*
X121275Y-8750D02*X122025Y-9500D01*
X121275Y-7250D02*Y-8750D01*
Y-7250D02*X122025Y-6500D01*
X123525D01*
X124275Y-7250D01*
X121275Y-8000D02*X124275D01*
Y-7250D01*
X128775Y-5000D02*Y-5750D01*
Y-7250D02*Y-9500D01*
X131025D02*X133275D01*
X134025Y-8750D01*
X133275Y-8000D02*X134025Y-8750D01*
X131025Y-8000D02*X133275D01*
X130275Y-7250D02*X131025Y-8000D01*
X130275Y-7250D02*X131025Y-6500D01*
X133275D01*
X134025Y-7250D01*
X130275Y-8750D02*X131025Y-9500D01*
X139275Y-3500D02*Y-8750D01*
X140025Y-9500D01*
X138525Y-5750D02*X140025D01*
X141525Y-3500D02*Y-9500D01*
Y-7250D02*X142275Y-6500D01*
X143775D01*
X144525Y-7250D01*
Y-9500D01*
X147075D02*X149325D01*
X146325Y-8750D02*X147075Y-9500D01*
X146325Y-7250D02*Y-8750D01*
Y-7250D02*X147075Y-6500D01*
X148575D01*
X149325Y-7250D01*
X146325Y-8000D02*X149325D01*
Y-7250D01*
X154575Y-6500D02*X156825D01*
X153825Y-7250D02*X154575Y-6500D01*
X153825Y-7250D02*Y-8750D01*
X154575Y-9500D01*
X156825D01*
X159375D02*X161625D01*
X158625Y-8750D02*X159375Y-9500D01*
X158625Y-7250D02*Y-8750D01*
Y-7250D02*X159375Y-6500D01*
X160875D01*
X161625Y-7250D01*
X158625Y-8000D02*X161625D01*
Y-7250D01*
X164175D02*Y-9500D01*
Y-7250D02*X164925Y-6500D01*
X165675D01*
X166425Y-7250D01*
Y-9500D01*
X163425Y-6500D02*X164175Y-7250D01*
X168975Y-3500D02*Y-8750D01*
X169725Y-9500D01*
X168225Y-5750D02*X169725D01*
X171975Y-9500D02*X174225D01*
X171225Y-8750D02*X171975Y-9500D01*
X171225Y-7250D02*Y-8750D01*
Y-7250D02*X171975Y-6500D01*
X173475D01*
X174225Y-7250D01*
X171225Y-8000D02*X174225D01*
Y-7250D01*
X176775D02*Y-9500D01*
Y-7250D02*X177525Y-6500D01*
X179025D01*
X176025D02*X176775Y-7250D01*
X180825Y-3500D02*Y-8750D01*
X181575Y-9500D01*
X183075Y-5000D02*Y-5750D01*
Y-7250D02*Y-9500D01*
X185325Y-7250D02*Y-9500D01*
Y-7250D02*X186075Y-6500D01*
X186825D01*
X187575Y-7250D01*
Y-9500D01*
X184575Y-6500D02*X185325Y-7250D01*
X190125Y-9500D02*X192375D01*
X189375Y-8750D02*X190125Y-9500D01*
X189375Y-7250D02*Y-8750D01*
Y-7250D02*X190125Y-6500D01*
X191625D01*
X192375Y-7250D01*
X189375Y-8000D02*X192375D01*
Y-7250D01*
X196875D02*Y-8750D01*
Y-7250D02*X197625Y-6500D01*
X199125D01*
X199875Y-7250D01*
Y-8750D01*
X199125Y-9500D02*X199875Y-8750D01*
X197625Y-9500D02*X199125D01*
X196875Y-8750D02*X197625Y-9500D01*
X202425Y-4250D02*Y-9500D01*
Y-4250D02*X203175Y-3500D01*
X203925D01*
X201675Y-6500D02*X203175D01*
X208875Y-3500D02*Y-8750D01*
X209625Y-9500D01*
X208125Y-5750D02*X209625D01*
X211125Y-3500D02*Y-9500D01*
Y-7250D02*X211875Y-6500D01*
X213375D01*
X214125Y-7250D01*
Y-9500D01*
X215925Y-5000D02*Y-5750D01*
Y-7250D02*Y-9500D01*
X218175D02*X220425D01*
X221175Y-8750D01*
X220425Y-8000D02*X221175Y-8750D01*
X218175Y-8000D02*X220425D01*
X217425Y-7250D02*X218175Y-8000D01*
X217425Y-7250D02*X218175Y-6500D01*
X220425D01*
X221175Y-7250D01*
X217425Y-8750D02*X218175Y-9500D01*
X226425Y-7250D02*Y-11750D01*
X225675Y-6500D02*X226425Y-7250D01*
X227175Y-6500D01*
X228675D01*
X229425Y-7250D01*
Y-8750D01*
X228675Y-9500D02*X229425Y-8750D01*
X227175Y-9500D02*X228675D01*
X226425Y-8750D02*X227175Y-9500D01*
X233475Y-6500D02*X234225Y-7250D01*
X231975Y-6500D02*X233475D01*
X231225Y-7250D02*X231975Y-6500D01*
X231225Y-7250D02*Y-8750D01*
X231975Y-9500D01*
X234225Y-6500D02*Y-8750D01*
X234975Y-9500D01*
X231975D02*X233475D01*
X234225Y-8750D01*
X237525Y-3500D02*Y-8750D01*
X238275Y-9500D01*
X236775Y-5750D02*X238275D01*
X239775Y-3500D02*Y-9500D01*
Y-7250D02*X240525Y-6500D01*
X242025D01*
X242775Y-7250D01*
Y-9500D01*
X200750Y622000D02*Y616000D01*
X203000Y622000D02*X203750Y621250D01*
Y616750D01*
X203000Y616000D02*X203750Y616750D01*
X200000Y616000D02*X203000D01*
X200000Y622000D02*X203000D01*
X207800Y619000D02*X208550Y618250D01*
X206300Y619000D02*X207800D01*
X205550Y618250D02*X206300Y619000D01*
X205550Y618250D02*Y616750D01*
X206300Y616000D01*
X208550Y619000D02*Y616750D01*
X209300Y616000D01*
X206300D02*X207800D01*
X208550Y616750D01*
X211850Y622000D02*Y616750D01*
X212600Y616000D01*
X211100Y619750D02*X212600D01*
X214850Y616000D02*X217100D01*
X214100Y616750D02*X214850Y616000D01*
X214100Y618250D02*Y616750D01*
Y618250D02*X214850Y619000D01*
X216350D01*
X217100Y618250D01*
X214100Y617500D02*X217100D01*
Y618250D01*
X218900Y619750D02*X219650D01*
X218900Y618250D02*X219650D01*
X224150Y621250D02*X224900Y622000D01*
X227150D01*
X227900Y621250D01*
Y619750D01*
X224150Y616000D02*X227900Y619750D01*
X224150Y616000D02*X227900D01*
X229700Y616750D02*X230450Y616000D01*
X229700Y621250D02*Y616750D01*
Y621250D02*X230450Y622000D01*
X231950D01*
X232700Y621250D01*
Y616750D01*
X231950Y616000D02*X232700Y616750D01*
X230450Y616000D02*X231950D01*
X229700Y617500D02*X232700Y620500D01*
X234500Y621250D02*X235250Y622000D01*
X237500D01*
X238250Y621250D01*
Y619750D01*
X234500Y616000D02*X238250Y619750D01*
X234500Y616000D02*X238250D01*
X240050Y616750D02*X240800Y616000D01*
X240050Y621250D02*Y616750D01*
Y621250D02*X240800Y622000D01*
X242300D01*
X243050Y621250D01*
Y616750D01*
X242300Y616000D02*X243050Y616750D01*
X240800Y616000D02*X242300D01*
X240050Y617500D02*X243050Y620500D01*
X244850Y619000D02*X247850D01*
X249650Y616750D02*X250400Y616000D01*
X249650Y621250D02*Y616750D01*
Y621250D02*X250400Y622000D01*
X251900D01*
X252650Y621250D01*
Y616750D01*
X251900Y616000D02*X252650Y616750D01*
X250400Y616000D02*X251900D01*
X249650Y617500D02*X252650Y620500D01*
X254450Y621250D02*X255200Y622000D01*
X257450D01*
X258200Y621250D01*
Y619750D01*
X254450Y616000D02*X258200Y619750D01*
X254450Y616000D02*X258200D01*
X260000Y619000D02*X263000D01*
X264800Y621250D02*X265550Y622000D01*
X267800D01*
X268550Y621250D01*
Y619750D01*
X264800Y616000D02*X268550Y619750D01*
X264800Y616000D02*X268550D01*
X270350Y619000D02*X273350Y622000D01*
X270350Y619000D02*X274100D01*
X273350Y622000D02*Y616000D01*
X279350D02*X280850D01*
X280100Y622000D02*Y616000D01*
X278600Y620500D02*X280100Y622000D01*
X282650Y616000D02*X285650Y619000D01*
Y621250D02*Y619000D01*
X284900Y622000D02*X285650Y621250D01*
X283400Y622000D02*X284900D01*
X282650Y621250D02*X283400Y622000D01*
X282650Y621250D02*Y619750D01*
X283400Y619000D01*
X285650D01*
X287450Y619750D02*X288200D01*
X287450Y618250D02*X288200D01*
X290000Y619000D02*X293000Y622000D01*
X290000Y619000D02*X293750D01*
X293000Y622000D02*Y616000D01*
X295550Y619000D02*X298550Y622000D01*
X295550Y619000D02*X299300D01*
X298550Y622000D02*Y616000D01*
X301100Y619750D02*X301850D01*
X301100Y618250D02*X301850D01*
X303650Y619000D02*X306650Y622000D01*
X303650Y619000D02*X307400D01*
X306650Y622000D02*Y616000D01*
X309200Y616750D02*X309950Y616000D01*
X309200Y621250D02*Y616750D01*
Y621250D02*X309950Y622000D01*
X311450D01*
X312200Y621250D01*
Y616750D01*
X311450Y616000D02*X312200Y616750D01*
X309950Y616000D02*X311450D01*
X309200Y617500D02*X312200Y620500D01*
X316700Y622000D02*Y616750D01*
X317450Y616000D01*
X318950D01*
X319700Y616750D01*
Y622000D02*Y616750D01*
X321500Y622000D02*X324500D01*
X323000D02*Y616000D01*
X327050D02*X329300D01*
X326300Y616750D02*X327050Y616000D01*
X326300Y621250D02*Y616750D01*
Y621250D02*X327050Y622000D01*
X329300D01*
X200000Y636250D02*Y631000D01*
Y636250D02*X200750Y637000D01*
X203000D01*
X203750Y636250D01*
Y631000D01*
X200000Y634000D02*X203750D01*
X205550D02*Y631750D01*
X206300Y631000D01*
X207800D01*
X208550Y631750D01*
Y634000D02*Y631750D01*
X211100Y637000D02*Y631750D01*
X211850Y631000D01*
X210350Y634750D02*X211850D01*
X213350Y637000D02*Y631000D01*
Y633250D02*X214100Y634000D01*
X215600D01*
X216350Y633250D01*
Y631000D01*
X218150Y633250D02*Y631750D01*
Y633250D02*X218900Y634000D01*
X220400D01*
X221150Y633250D01*
Y631750D01*
X220400Y631000D02*X221150Y631750D01*
X218900Y631000D02*X220400D01*
X218150Y631750D02*X218900Y631000D01*
X223700Y633250D02*Y631000D01*
Y633250D02*X224450Y634000D01*
X225950D01*
X222950D02*X223700Y633250D01*
X227750Y634750D02*X228500D01*
X227750Y633250D02*X228500D01*
X200000Y652000D02*X203000D01*
X201500D02*Y646000D01*
X204800Y650500D02*Y649750D01*
Y648250D02*Y646000D01*
X207050Y652000D02*Y646750D01*
X207800Y646000D01*
X206300Y649750D02*X207800D01*
X209300Y652000D02*Y646750D01*
X210050Y646000D01*
X212300D02*X214550D01*
X211550Y646750D02*X212300Y646000D01*
X211550Y648250D02*Y646750D01*
Y648250D02*X212300Y649000D01*
X213800D01*
X214550Y648250D01*
X211550Y647500D02*X214550D01*
Y648250D01*
X216350Y649750D02*X217100D01*
X216350Y648250D02*X217100D01*
X221600Y646750D02*X222350Y646000D01*
X221600Y651250D02*X222350Y652000D01*
X221600Y651250D02*Y646750D01*
X224150Y649000D02*Y646750D01*
X224900Y646000D01*
X226400D01*
X227150Y646750D01*
Y649000D02*Y646750D01*
X229700Y648250D02*Y646000D01*
Y648250D02*X230450Y649000D01*
X231200D01*
X231950Y648250D01*
Y646000D01*
X228950Y649000D02*X229700Y648250D01*
X233750Y652000D02*Y646000D01*
Y648250D02*X236000Y646000D01*
X233750Y648250D02*X235250Y649750D01*
X238550Y648250D02*Y646000D01*
Y648250D02*X239300Y649000D01*
X240050D01*
X240800Y648250D01*
Y646000D01*
X237800Y649000D02*X238550Y648250D01*
X242600D02*Y646750D01*
Y648250D02*X243350Y649000D01*
X244850D01*
X245600Y648250D01*
Y646750D01*
X244850Y646000D02*X245600Y646750D01*
X243350Y646000D02*X244850D01*
X242600Y646750D02*X243350Y646000D01*
X247400Y649000D02*Y646750D01*
X248150Y646000D01*
X248900D01*
X249650Y646750D01*
Y649000D02*Y646750D01*
X250400Y646000D01*
X251150D01*
X251900Y646750D01*
Y649000D02*Y646750D01*
X254450Y648250D02*Y646000D01*
Y648250D02*X255200Y649000D01*
X255950D01*
X256700Y648250D01*
Y646000D01*
X253700Y649000D02*X254450Y648250D01*
X258500Y652000D02*X259250Y651250D01*
Y646750D01*
X258500Y646000D02*X259250Y646750D01*
X263750Y649000D02*X266750D01*
X271250Y652000D02*Y646000D01*
Y652000D02*X274250D01*
X271250Y649000D02*X273500D01*
X278300D02*X279050Y648250D01*
X276800Y649000D02*X278300D01*
X276050Y648250D02*X276800Y649000D01*
X276050Y648250D02*Y646750D01*
X276800Y646000D01*
X279050Y649000D02*Y646750D01*
X279800Y646000D01*
X276800D02*X278300D01*
X279050Y646750D01*
X281600Y652000D02*Y646000D01*
Y646750D02*X282350Y646000D01*
X283850D01*
X284600Y646750D01*
Y648250D02*Y646750D01*
X283850Y649000D02*X284600Y648250D01*
X282350Y649000D02*X283850D01*
X281600Y648250D02*X282350Y649000D01*
X287150Y648250D02*Y646000D01*
Y648250D02*X287900Y649000D01*
X289400D01*
X286400D02*X287150Y648250D01*
X291200Y650500D02*Y649750D01*
Y648250D02*Y646000D01*
X293450Y649000D02*X295700D01*
X292700Y648250D02*X293450Y649000D01*
X292700Y648250D02*Y646750D01*
X293450Y646000D01*
X295700D01*
X299750Y649000D02*X300500Y648250D01*
X298250Y649000D02*X299750D01*
X297500Y648250D02*X298250Y649000D01*
X297500Y648250D02*Y646750D01*
X298250Y646000D01*
X300500Y649000D02*Y646750D01*
X301250Y646000D01*
X298250D02*X299750D01*
X300500Y646750D01*
X303800Y652000D02*Y646750D01*
X304550Y646000D01*
X303050Y649750D02*X304550D01*
X306050Y650500D02*Y649750D01*
Y648250D02*Y646000D01*
X307550Y648250D02*Y646750D01*
Y648250D02*X308300Y649000D01*
X309800D01*
X310550Y648250D01*
Y646750D01*
X309800Y646000D02*X310550Y646750D01*
X308300Y646000D02*X309800D01*
X307550Y646750D02*X308300Y646000D01*
X313100Y648250D02*Y646000D01*
Y648250D02*X313850Y649000D01*
X314600D01*
X315350Y648250D01*
Y646000D01*
X312350Y649000D02*X313100Y648250D01*
X320600Y652000D02*Y646000D01*
X322850Y652000D02*X323600Y651250D01*
Y646750D01*
X322850Y646000D02*X323600Y646750D01*
X319850Y646000D02*X322850D01*
X319850Y652000D02*X322850D01*
X326150Y648250D02*Y646000D01*
Y648250D02*X326900Y649000D01*
X328400D01*
X325400D02*X326150Y648250D01*
X332450Y649000D02*X333200Y648250D01*
X330950Y649000D02*X332450D01*
X330200Y648250D02*X330950Y649000D01*
X330200Y648250D02*Y646750D01*
X330950Y646000D01*
X333200Y649000D02*Y646750D01*
X333950Y646000D01*
X330950D02*X332450D01*
X333200Y646750D01*
X335750Y649000D02*Y646750D01*
X336500Y646000D01*
X337250D01*
X338000Y646750D01*
Y649000D02*Y646750D01*
X338750Y646000D01*
X339500D01*
X340250Y646750D01*
Y649000D02*Y646750D01*
X342050Y650500D02*Y649750D01*
Y648250D02*Y646000D01*
X344300Y648250D02*Y646000D01*
Y648250D02*X345050Y649000D01*
X345800D01*
X346550Y648250D01*
Y646000D01*
X343550Y649000D02*X344300Y648250D01*
X350600Y649000D02*X351350Y648250D01*
X349100Y649000D02*X350600D01*
X348350Y648250D02*X349100Y649000D01*
X348350Y648250D02*Y646750D01*
X349100Y646000D01*
X350600D01*
X351350Y646750D01*
X348350Y644500D02*X349100Y643750D01*
X350600D01*
X351350Y644500D01*
Y649000D02*Y644500D01*
M02*
